<svg id="レイヤー_1" data-name="レイヤー 1" xmlns="http://www.w3.org/2000/svg" viewBox="0 0 1920 1080"><defs><style>.cls-1{fill:#aaff01}.cls-2{fill:#ff2674}</style></defs><path class="cls-1" d="M1012.89 719.7L807.28 606.37V378.91l205.61-113.33 205.6 113.33v227.46zM827.28 594.55l185.61 102.31 185.6-102.31V390.73l-185.6-102.31-185.61 102.31z"/><path class="cls-2" d="M810.19 481.72l-115-61.17V297.24l115-61.17 115 61.17v123.31zm-101-69.58l101 53.72 101-53.72V305.65l-101-53.72-101 53.72zM1095.2 435.8l-36.84 19.6-36.84-19.6v-39.2l36.84-19.6 36.84 19.6v39.2z"/><path class="cls-2" d="M1058.36 463.33L1014.52 440v-47.61l43.84-23.32 43.84 23.32V440zm-29.84-31.74l29.84 15.88 29.84-15.88V400.8l-29.84-15.87-29.84 15.87zM1080.7 228.15l-20.77 11.05-20.77-11.05v-22.1l20.77-11.05 20.77 11.05v22.1z"/><path class="cls-2" d="M1059.93 247.13l-27.77-14.78v-30.51l27.77-14.77 27.77 14.77v30.51zm-13.77-23.19l13.77 7.33 13.77-7.33v-13.69l-13.77-7.32-13.77 7.32z"/><path class="cls-1" d="M1241.45 324.06l-72.55-40v-80.5l72.55-40 72.55 40v80.5zm-59.55-47.67l59.55 32.83 59.55-32.83v-65.14l-59.55-32.83-59.55 32.83z"/><path class="cls-2" d="M1186.25 776.09l-137.23-73V555.82l137.23-73 137.24 73v147.26zM1067 692.27l119.23 63.43 119.24-63.43V566.63l-119.24-63.44L1067 566.63z"/><path class="cls-2" d="M1134.7 598.15l-20.77 11.05-20.77-11.05v-22.1l20.77-11.05 20.77 11.05v22.1zM1428.84 567.6L1392 587.2l-36.84-19.6v-39.2l36.84-19.6 36.84 19.6v39.2z"/><path class="cls-2" d="M1392 595.13l-43.84-23.33v-47.6l43.84-23.33 43.84 23.33v47.6zm-29.84-31.74l29.84 15.88 29.84-15.88v-30.78L1392 516.73l-29.84 15.88zM1341.51 494.83l-73.51-39.1v-79.16l73.49-39.1 73.49 39.1v79.16zM1282 447.32l59.51 31.68 59.49-31.68V385l-59.49-31.65L1282 385z"/><path class="cls-1" d="M811.72 877.07l-97.27-53.62V715.7l97.27-53.62L909 715.7v107.75zm-84.27-61.3l84.27 46.46L896 815.77v-92.39l-84.28-46.46-84.27 46.46z"/><path class="cls-2" d="M768.16 880l-40.64-21.61v-43.87l40.64-21.62 40.63 21.62v43.86zm-31.64-27l31.64 16.83L799.79 853v-33l-31.63-16.9-31.64 16.83zM1039 874.82l-31.88 17.28-31.89-17.28v-34.55l31.89-17.27 31.88 17.27v34.55z"/><path class="cls-1" d="M1142.22 897.24l-53.77-29.64v-59.8l53.77-29.64L1196 807.8v59.8zm-40.77-37.32l40.77 22.48 40.78-22.48v-44.44L1142.22 793l-40.77 22.48z"/><path class="cls-2" d="M1299 913.55l-40.63-21.62v-43.86l40.63-21.62 40.63 21.62v43.86zm-31.63-27l31.63 16.8 31.63-16.83v-33L1299 836.65l-31.63 16.83z"/><path class="cls-1" d="M1391.04 805.46l-35.66 19.66-35.66-19.66v-39.31l35.66-19.65 35.66 19.65v39.31z"/><path class="cls-1" d="M1355.38 832.54l-42.16-23.24v-47l42.16-23.24 42.16 23.24v47zm-29.16-30.91l29.16 16.07 29.16-16.07V770l-29.16-16.07-29.16 16.07z"/><path class="cls-2" d="M733.88 589.27L702 606.55l-31.88-17.28v-34.54L702 537.45l31.88 17.28v34.54z"/></svg>