<svg id="レイヤー_1" data-name="レイヤー 1" xmlns="http://www.w3.org/2000/svg" viewBox="0 0 1336 678"><defs><style>.cls-1{fill:#fefefe;}.cls-2{fill:#92da27;}.cls-3{fill:#16212b;}.cls-4{fill:#1f3029;}.cls-5{fill:#273b28;}.cls-6{fill:#355027;}.cls-7{fill:#f6faef;}.cls-8{fill:#2c4327;}.cls-9{fill:#2e4628;}.cls-10{fill:#598131;}.cls-11{fill:#5c8829;}.cls-12{fill:#3b5a26;}.cls-13{fill:#f5faec;}.cls-14{fill:#fafdf4;}.cls-15{fill:#f2f7e8;}.cls-16{fill:#50762a;}.cls-17{fill:#3f6026;}.cls-18{fill:#4d7526;}.cls-19{fill:#547e29;}.cls-20{fill:#426525;}.cls-21{fill:#4f7628;}.cls-22{fill:#5b8828;}.cls-23{fill:#e7f3d6;}.cls-24{fill:#aecf81;}.cls-25{fill:#5f8f27;}.cls-26{fill:#76ab31;}.cls-27{fill:#253928;}.cls-28{fill:#6ca029;}.cls-29{fill:#84c32c;}.cls-30{fill:#f6faed;}</style></defs><path class="cls-1" d="M69,799V-11H1509V799ZM569.8,174.77v3.74q0,145.31.11,290.62a9,9,0,0,0,2.5,5.74q42.84,43.06,85.86,86a8.77,8.77,0,0,0,6.85,2.84q168.38-.09,336.74,0h4.23V174.77Z"/><path class="cls-2" d="M569.8,174.77h436.29V563.62h-4.23q-168.36,0-336.74,0a8.77,8.77,0,0,1-6.85-2.84q-42.9-43-85.86-86a9,9,0,0,1-2.5-5.74q-.18-145.3-.11-290.62Zm7.56,15.36v4.38q0,135.74-.05,271.47a8.33,8.33,0,0,0,2.63,6.57q40.68,40.45,81.16,81.1a8,8,0,0,0,6.24,2.5q160.11-.07,320.23,0h4.27v-366Z"/><path class="cls-3" d="M577.36,190.13H991.84v366h-4.27q-160.11,0-320.23,0a8,8,0,0,1-6.24-2.5q-40.49-40.64-81.16-81.1a8.33,8.33,0,0,1-2.63-6.57q.09-135.74.05-271.47ZM779.25,373.86c0-2.62.18-5.27,0-7.87-1.05-12.62-6.37-22.92-17.85-28.82-12.19-6.26-25.18-6.25-37.51-.77-10.91,4.85-21,5.22-31.92.24A46.59,46.59,0,0,0,660.59,334c-8.71,2.2-16.46,6-21.34,13.91a43.12,43.12,0,0,0-6.67,27.47c1,10-1.36,18.42-7.93,25.81-1.57,1.77-3.7,3.19-4.85,5.18-6.23,10.83-10.76,22.17-8.52,35.05,1.22,7,3.74,13.73,10,17.58a119.13,119.13,0,0,0,18.43,8.74c5.82,2.3,9,6.38,10.46,12.18,1.32,5.42,2.07,11,3.87,16.28,3,8.73,8.34,15.33,17.78,18.2,10.42,3.16,20.78,2.81,31.36,1.4,4.86-.65,9.85-.33,14.78-.4,4.74-.06,9.57.53,14.2-.21,17.23-2.73,28.67-13,34.3-29.14,3.71-10.66,9.59-17.95,20.81-21.39a39.52,39.52,0,0,0,15.44-9.36c11.44-11.23,12.77-32.3,3.9-45.7-3.85-5.8-9.11-9.6-15.25-12.7-3.31-1.67-6.19-4.41-8.87-7.06C778,385.35,779.42,379.39,779.25,373.86Z"/><path class="cls-4" d="M779.24,373.86c.18,5.53-1.26,11.49,3.28,16,2.68,2.65,5.56,5.39,8.87,7.06,6.14,3.1,11.4,6.9,15.25,12.7,8.87,13.4,7.54,34.47-3.9,45.7a39.52,39.52,0,0,1-15.44,9.36c-11.22,3.44-17.1,10.73-20.81,21.39-5.63,16.18-17.07,26.41-34.3,29.14-4.63.74-9.46.15-14.2.21-4.93.07-9.92-.25-14.78.4-10.58,1.41-20.94,1.76-31.36-1.4-9.44-2.87-14.79-9.47-17.78-18.2-1.8-5.25-2.55-10.86-3.87-16.28-1.42-5.8-4.64-9.88-10.46-12.18A119.13,119.13,0,0,1,621.31,459c-6.29-3.85-8.81-10.54-10-17.58-2.24-12.88,2.29-24.22,8.52-35.05,1.15-2,3.28-3.41,4.85-5.18,6.57-7.39,9-15.82,7.93-25.81a43.12,43.12,0,0,1,6.67-27.47c4.88-7.88,12.63-11.71,21.34-13.91a46.59,46.59,0,0,1,31.35,2.63c10.94,5,21,4.61,31.92-.24,12.33-5.48,25.32-5.49,37.51.77,11.48,5.9,16.8,16.2,17.85,28.82C779.43,368.59,779.25,371.24,779.24,373.86Zm-9-4.4,1,0c-.35-3.33-.76-6.66-1-10-.71-8.83-5.22-14.11-13.77-16.39-7.74-2.06-15.46-1.53-23.33-1A27.36,27.36,0,0,0,712.79,353c-3.42,4.31-7.56,4.24-10.79-.27-3.69-5.14-8.32-8.64-14.76-9.88a83.66,83.66,0,0,0-28.19-.37c-9,1.33-15.76,5.91-16.52,15.52a263.05,263.05,0,0,0-.54,32.74c.33,6.78-.45,9.37-7,11.25-.36.1-.74.14-1.09.25-6,2-10.91,4.91-11.53,12.08a33.53,33.53,0,0,1-1.37,8.4,58.74,58.74,0,0,0-3.06,19.43,14.83,14.83,0,0,0,12.34,14.7c5.12.89,10.37,1,15.53,1.69,3.28.44,6.94.58,9.58,2.22,1.51.94,1.31,4.62,1.89,7.07,0,.12.1.23.12.35.88,7.76,1.6,15.53,2.72,23.25A40.83,40.83,0,0,0,663,502.48a11.83,11.83,0,0,0,13.6,6.84c4.43-1.09,8.51-.62,12.77.17a21,21,0,0,0,4.69.07c4.22-.22,8.43-.49,12.65-.77,2.28-.16,4.83.19,6.78-.72,3.41-1.6,6.33-1.29,9.55.27a16.42,16.42,0,0,0,13,.6c5.88-2,9.26-6.11,13-10.63,7.82-9.55,13.76-19.86,15-32.29.49-4.86,2.63-5.9,7.38-6.74,3.54-.63,7.15-.87,10.66-1.57,10.42-2.09,19.07-6.74,21.42-18,1-5,.57-10.43.48-15.66-.15-8.94-6-18-14.76-20.3-3.84-1-7.67-2.09-11.53-3.07-6.55-1.68-7.42-2.76-7.42-9.53Z"/><path class="cls-5" d="M770.25,369.46V391.1c0,6.77.87,7.85,7.42,9.53,3.86,1,7.69,2.06,11.53,3.07C798,406,803.81,415.06,804,424c.09,5.23.57,10.62-.48,15.66-2.35,11.31-11,16-21.42,18-3.51.7-7.12.94-10.66,1.57-4.75.84-6.89,1.88-7.38,6.74-1.25,12.43-7.19,22.74-15,32.29-3.7,4.52-7.08,8.67-13,10.63a16.42,16.42,0,0,1-13-.6c-3.22-1.56-6.14-1.87-9.55-.27-2,.91-4.5.56-6.78.72-4.22.28-8.43.55-12.65.77a21,21,0,0,1-4.69-.07c-4.26-.79-8.34-1.26-12.77-.17a11.83,11.83,0,0,1-13.6-6.84,40.83,40.83,0,0,1-2.95-11.05c-1.12-7.72-1.84-15.49-2.72-23.25,0-.12-.09-.23-.12-.35-.58-2.45-.38-6.13-1.89-7.07-2.64-1.64-6.3-1.78-9.58-2.22-5.16-.68-10.41-.8-15.53-1.69a14.83,14.83,0,0,1-12.34-14.7A58.74,58.74,0,0,1,621,422.72a33.53,33.53,0,0,0,1.37-8.4c.62-7.17,5.53-10.12,11.53-12.08.35-.11.73-.15,1.09-.25,6.6-1.88,7.38-4.47,7-11.25a263.05,263.05,0,0,1,.54-32.74c.76-9.61,7.52-14.19,16.52-15.52a83.66,83.66,0,0,1,28.19.37c6.44,1.24,11.07,4.74,14.76,9.88,3.23,4.51,7.37,4.58,10.79.27a27.36,27.36,0,0,1,20.38-10.91c7.87-.58,15.59-1.11,23.33,1,8.55,2.28,13.06,7.56,13.77,16.39.26,3.33.67,6.66,1,10ZM660,470.5q1.13,3,2.24,6c0,.75,0,1.5,0,2.25-1,1.49-1.6,2.92.75,3.75v6.75a26.52,26.52,0,0,0,0,5.2c1.85,9,3.16,13.41,12.7,12.8,4.5-2.35,9-1.21,13.5,0l9-.75a44.27,44.27,0,0,1,6.64.4c4,.81,7.66.29,10.75-2.46,2.08-1.84,3.72-1.54,5.87.06s4.47,2.36,6.74,3.5a20.63,20.63,0,0,0,3.69,0c4-.73,7.8-1.9,9.81-6a3,3,0,0,1,.67-.05L750,491.5c1.71-1.83,3.81-3.43,5.07-5.53,4.33-7.23,7.51-14.82,5.12-23.56-1.56-5.69-1.21-6.15,4.68-6.16,7.56,0,15.19.55,22.46-2.17,1.7-.64,3.12-2,4.67-3.08l3.75-2.25,1.5-2.25c1.22-1.55,3-2.93,3.57-4.69a41.74,41.74,0,0,0,.07-23.42c-.26-1-1.4-1.77-2.14-2.64V415c-1.65-2.32-2.83-5.39-5-6.83-7.18-4.64-15.57-5.23-23.85-5.94-1.83-.15-3.64-.55-5.45-.83l1.24-.66c.79-6.31,1.92-12.61,2.27-18.95.39-7.33-.16-14.71.16-22s-4.81-12.8-11.42-14.57c-9.38-2.5-18.76-1.63-28.1-.29-3.22.46-7,1-8.55,4.86h0c-1,.69-2.34,1.17-2.84,2.11a144.1,144.1,0,0,0-6.71,13.74,15.07,15.07,0,0,0-1.11,7.59c.89,5.86,2.3,11.66,3.75,17.42a32.09,32.09,0,0,0,3,8c1.31,2.3.68,3.49-1.06,5.07-4.22,3.85-8.29,2-12.44.06-5-2.33-4.87-2.29-3.23-7.57,4.21-13.55,6.07-27.11.39-40.83-2.31-5.58-6.14-8.84-12-10.09-9.49-2-19.05-1.79-28.57-.62-6.47.79-12.28,3.23-14.09,10.36-2.7,10.65-1.86,21.52-1.23,32.33a38.2,38.2,0,0,0,1.55,9.08c1.34,4.24,1,5.32-3.22,6.42-3.6.93-7.35,1.38-10.84,2.6-1.73.6-5.17.67-3.74,4.36a4,4,0,0,1,0,.69.69.69,0,0,1-.51.11c-.54,1-1.09,2-1.64,3-.47,3-.74,6.06-1.46,9-1.32,5.48-3.19,10.84-4.32,16.36-1.59,7.74,4.59,16.45,12.52,15.88h6c2.78,2.88,5.91,1.56,9,.75H654a55.68,55.68,0,0,0,5.73.71c3,.08,3.79,1.13,2.5,4a64.42,64.42,0,0,0-2.23,6.58Z"/><path class="cls-6" d="M798.75,415v.75c.75,4.39,1.76,8.76,2.18,13.18a30.65,30.65,0,0,1-3.68,17.57l-1.5,2.25L792,451c-10.71,4.07-21.52,5.57-32.57,1.3-5.3-2.05-7.77-1.06-10.93,4.65,1.35.76,2.76,1.44,4,2.3,2,1.37,5,1.92,4.92,5.29a24.12,24.12,0,0,1-4.7-1c-7.71-3.38-15.71-3.18-23.7-1.76-2.17.39-4.06,2.32-6.08,3.54l-.65.73-1.44,1.66,0-.08-1.87,2.19c-.37-.88-1.29-2.07-1-2.58,1.31-2.31,3-4.43,4.49-6.62.61-.87,1.73-1.77,1.68-2.6s-1.39-1.51-2.31-1.87c-3.92-1.52-7.89-2.92-11.86-4.29a5.78,5.78,0,0,0-3.2-.51q-7.44,2.35-14.72,5.19c-.46.18-.7,2.53-.45,2.66a17.91,17.91,0,0,1,10.17,12.94c0,.27.57.44.87.65,0,.5,0,1,0,1.5v10.5c-2.25,6.18-.22,9.54,6.24,10.57.66.1,1.2,1.06,1.79,1.62-5.07-.35-6.8,1.34-5.68,5.54l-8.78.82a.39.39,0,0,1,.27-.51c.55-.87,1.52-1.72,1.58-2.64.61-8.74,1.41-17.49,1.39-26.24,0-3.66-1.42-7.5-5.45-9.44-2.74-1.31-8.53-1-10,.88h0c-1.94.13-4.23,1-5.74.26-4.5-2.2-9.13-1.83-13.81-1.79,1.38-1,2.68-2.74,4.16-2.91a40.9,40.9,0,0,1,8.89.39c3.14.35,5.7-.46,8.44-3.21l-4.63-1.78c-3.81-1.48-7.72-2.73-11.38-4.51a11.44,11.44,0,0,0-13.78,2.95h-24c-1-.62-2-1.17-2.91-1.87-1.07-.82-2.05-1.77-3.07-2.66,2.65.5,5.28,1.34,7.94,1.44,5.95.22,11.93.24,17.89,0,3-.12,6.09-.67,7.91-3.66.65-.28,1.52-.39,1.92-.88,2.45-3,4.57-2.41,6.9.22.7.79,2.09,1,3.16,1.42.88.94,1.58,2.32,2.66,2.74a32.4,32.4,0,0,0,24,.2c5.15-2,9.77-4.79,15.41-2.21l1.49.75c1,.79,1.89,2,3,2.26,2.78.57,5.65.63,8.49.95,9.17,1,18.25,1.81,25.11-6.38,1.52-1.81,3.36-1.81,5.28-.32,9.11,7.07,23.61,8,33.61,2,1.36-.81,2.19-2.5,3.26-3.78l.75-1.52,0,0,.75-1.64a.71.71,0,0,1,0-.57c.26-.26.52-.52.77-.79.25-.5.49-1,.73-1.51l.09-1.47c.45-.49,1.29-1,1.3-1.46q.17-6.06,0-12.11c0-.5-.85-1-1.3-1.46l-.09-2.25-1.53-3.74L794.32,415h0l-1.66-1.36.05,0-.85-.75.07.06-1.43-.92h0l0-.8c-.9-.91-1.65-2.39-2.71-2.65C778.41,406.25,769,405,760,410c-2.63,1.47-5.18,1.73-7.74,0-9.66-6.34-20.17-4.59-30.6-3.14-.91.13-1.6,1.78-2.39,2.72l-3.1.7-.83.86a23,23,0,0,1-.56,2.46c-.38,1.12-.87,2.2-1.31,3.3a25.26,25.26,0,0,1-3.07-1.56,13.31,13.31,0,0,1-2.11-2.07,22.54,22.54,0,0,0-16-7.35H690c-5.79-1.44-11.48-1.35-16.83,1.52-3.31,1.77-6.33,3.71-10.38,1.82a34.61,34.61,0,0,0-9.47-3.06c-2.94-.42-6,.27-9.07.47h-4.49c-2.5.42-5.55-.4-6.77,2.95h-3.75c1.52-1.24,2.89-3.21,4.6-3.59,5.18-1.13,10.5-1.58,15.74-2.44a4.31,4.31,0,0,0,2.64-1.64c.25-.37-.73-1.62-1.24-2.42-1.5-2.36-3.86-4.51-4.42-7.07-2.57-11.85-2-23.85-.39-35.77.23-1.71,2.19-3.19,3.35-4.77-.49,2-1.39,4-1.41,6-.14,10.37-.19,20.75.09,31.12,0,1.95,1.72,3.87,2.65,5.8,2.73,1.19,5.42,3.26,8.22,3.4a247.66,247.66,0,0,0,25.85,0c2.79-.15,5.47-2.24,8.2-3.45,1-1.89,2.69-3.77,2.74-5.69q.36-15.81-.08-31.62c0-1.88-1.83-3.71-2.82-5.57a.88.88,0,0,1-.47-.16.83.83,0,0,0-.2-.66c-2.78-1-5.55-2.71-8.35-2.75-11-.15-22.13-1.19-32.94,2.08,1.36-3.76,5.06-4.17,7.93-4.33,8.4-.46,16.84-.37,25.26-.1,7.53.24,13.13,4.69,14.52,11.6,1.86,9.29,1.72,18.75.78,28.1-.49,4.87-1.71,9.76-5.83,13.36-2.2,1.93-1.18,3.74,1.28,4.83,4.42,2,8.78,4.06,13.29,5.79a6.09,6.09,0,0,0,4.48-.24,77.83,77.83,0,0,0,7.76-5.09c2.44-1.68,2.37-3.12.21-5.34s-4.26-4.85-4.95-7.65A191.41,191.41,0,0,1,712.57,372a11,11,0,0,1,.44-5.15c2.18-5.76,4.64-11.42,7-17.12h0a39.74,39.74,0,0,1,15.17-4.09c7.34-.45,14.59-.93,21.68,1.2,1.91.58,3.43,2.42,5.13,3.68a64.11,64.11,0,0,0-29-2.21c-3.7.54-8.65.73-10.66,3.09-5.41,6.38-7.6,14.4-6.74,22.94a79.58,79.58,0,0,0,1.6,11,84.61,84.61,0,0,0,3.43,9.48c1,.65,1.91,1.79,2.94,1.88,7.28.67,14.64,1.93,21.85,1.38,5.89-.44,11.6-3.13,17.39-4.83a4.34,4.34,0,0,1,.72,0c-.58,1.4-.78,3.34-1.83,4.09-2.08,1.48-4.66,2.25-7,3.41-1.58.79-3.06,1.76-4.59,2.65,1.35,1.17,2.54,2.67,4.1,3.42a6.59,6.59,0,0,0,4.24.17c7-1.92,13.83-3.05,21.21-1.91C787.34,406.26,793.92,408.72,798.75,415Z"/><path class="cls-7" d="M627.16,410.54a.68.68,0,0,0,.5-.11c10.8.84,21.82-1.65,32.4,2.24a.57.57,0,0,0,.52.13c.13,1.09.27,2.18.33,2.7l2.19,4.12-3,2.94,4.36,2.12c.63,3.95-2.24,4.11-5.38,3.95l.77.94-3.51,2.8c-1.86,0-3.73.09-5.59.09-4.48,0-9-.11-13.43.11-1.13.05-2.2,1.17-3.3,1.8a8.09,8.09,0,0,1,1.48,2.54,3.48,3.48,0,0,1-.8,2.62c-.5.52-1.62.42-2.47.6,0,.4,0,.81.07,1.22,8.44,1.49,17,.45,25.52.58l3,0,.82.78c0,.5-.06,1-.08,1.51v0c-3.45-.53-2.65,2.32-3.26,4.46h-32l-.86-.57a.27.27,0,0,0-.35-.22l-1-1.55,0,.05.07-2c2-.15,4.15-.09,1.92-3a3.21,3.21,0,0,1-.12-2.21c.63-3.12,1.34-6.22,2.07-9.52l-3.26-.58a1,1,0,0,0,.09-.49h.32l.29-.15c1.24,0,2.82.43,3.67-.16,3.86-2.68,8.16-1.94,12.36-2,4-.07,8,.07,12-.07,1.17,0,2.32-.74,3.92-1.29l-4.23-2.1L656,419.7c-.06-1.92-1.51-2.47-3.71-2.5-7.47-.07-14.93-.28-22.4-.44l-.66-1,2.3-3.06H627C627.06,412,627.11,411.27,627.16,410.54Z"/><path class="cls-8" d="M720,349.75c-2.35,5.7-4.81,11.36-7,17.12a11,11,0,0,0-.44,5.15,191.41,191.41,0,0,0,3.16,19.41c.69,2.8,2.84,5.5,4.95,7.65s2.23,3.66-.21,5.34a77.83,77.83,0,0,1-7.76,5.09,6.09,6.09,0,0,1-4.48.24c-4.51-1.73-8.87-3.84-13.29-5.79-2.46-1.09-3.48-2.9-1.28-4.83,4.12-3.6,5.34-8.49,5.83-13.36.94-9.35,1.08-18.81-.78-28.1-1.39-6.91-7-11.36-14.52-11.6-8.42-.27-16.86-.36-25.26.1-2.87.16-6.57.57-7.93,4.33l.06.86a2.73,2.73,0,0,1-.27.64h-1.27c-1.16,1.58-3.12,3.06-3.35,4.77-1.64,11.92-2.18,23.92.39,35.77.56,2.56,2.92,4.71,4.42,7.07.51.8,1.49,2.05,1.24,2.42a4.31,4.31,0,0,1-2.64,1.64c-5.24.86-10.56,1.31-15.74,2.44-1.71.38-3.08,2.35-4.6,3.59l-1.55,0c-1.43-3.69,2-3.76,3.74-4.36,3.49-1.22,7.24-1.67,10.84-2.6,4.27-1.1,4.56-2.18,3.22-6.42a38.2,38.2,0,0,1-1.55-9.08c-.63-10.81-1.47-21.68,1.23-32.33,1.81-7.13,7.62-9.57,14.09-10.36,9.52-1.17,19.08-1.42,28.57.62,5.82,1.25,9.65,4.51,12,10.09,5.68,13.72,3.82,27.28-.39,40.83-1.64,5.28-1.74,5.24,3.23,7.57,4.15,1.94,8.22,3.79,12.44-.06,1.74-1.58,2.37-2.77,1.06-5.07a32.09,32.09,0,0,1-3-8c-1.45-5.76-2.86-11.56-3.75-17.42a15.07,15.07,0,0,1,1.11-7.59,144.1,144.1,0,0,1,6.71-13.74C717.66,350.92,719,350.44,720,349.75Z"/><path class="cls-8" d="M702.75,474.25c0-.5,0-1,0-1.5.12-.77.56-1.67.31-2.29-1.16-2.85-2.46-5.65-3.8-8.43-1.77-3.67-1.15-4.81,2.44-6.61,5.74-2.87,10.54-.42,15.49,2,2.06,1,2.23,2.17,1.34,4.17a28.91,28.91,0,0,0-2.14,7c-.12.74,1.28,1.73,2,2.61l1,.65v-.05l-.12.86c0,.26,0,.53,0,.8-2.75.78-.76,2.22-.18,2.95a18,18,0,0,0,3.45,2.76c3.89,2.89,4.54,5.51,2.44,9.9-1.31,2.74-2.79,5.41-3.82,8.24-.29.81.71,2.09,1.11,3.15l.07-.07,1.48.79h0l1.27,1.65a4,4,0,0,1,.22.57L726,505l2.25,3.05c-2.27-1.14-4.74-2-6.74-3.5s-3.79-1.9-5.87-.06c-3.09,2.75-6.73,3.27-10.75,2.46a44.27,44.27,0,0,0-6.64-.4c2-3.2,5.06-.7,7.5-1.5,1.75-.54,4.24,1.34,5.27-1.59l.18-.18c2.79.82,5.11-.32,5.29-3,.12-1.87-1.23-4.31-2.69-5.68a10.48,10.48,0,0,0-5.75-2.23c-3.15-.37-4.1-2.26-4.56-4.9-.16-.92-.49-1.81-.74-2.72v-10.5Zm12.45-11.49c-.68-1.13-1.22-3.18-2.52-3.93-2.8-1.61-6.18-1.94-8.7.42-.91.85-.64,3.26-.47,4.92.6,5.88,1.93,11.75,1.94,17.62,0,4.59.49,7.94,3.39,8.85,3.27,1,6.57,2,9.86,2.92.09,0,.22-.1.34-.15,4.2-1.85,5.8-8.85,2.46-12C716.18,476.54,712.31,471.26,715.2,462.76Z"/><path class="cls-8" d="M762,350.54c-1.7-1.26-3.22-3.1-5.13-3.68-7.09-2.13-14.34-1.65-21.68-1.2A39.74,39.74,0,0,0,720,349.75c1.56-3.87,5.33-4.4,8.55-4.86,9.34-1.34,18.72-2.21,28.1.29,6.61,1.77,11.73,7.27,11.42,14.57s.23,14.71-.16,22c-.35,6.34-1.48,12.64-2.27,18.95l-1.24.66c1.81.28,3.62.68,5.45.83,8.28.71,16.67,1.3,23.85,5.94,2.22,1.44,3.4,4.51,5,6.83-4.83-6.28-11.41-8.74-19.1-9.92-7.38-1.14-14.24,0-21.21,1.91a6.59,6.59,0,0,1-4.24-.17c-1.56-.75-2.75-2.25-4.1-3.42,1.53-.89,3-1.86,4.59-2.65,2.32-1.16,4.9-1.93,7-3.41,1.05-.75,1.25-2.69,1.83-4.09h0c.73-1.15,2.06-2.28,2.11-3.46.42-10.75.79-21.5.74-32.26,0-2.5-.18-6-4.25-6.31C762.05,351,762,350.77,762,350.54Z"/><path class="cls-8" d="M757.47,464.54c.09-3.37-2.89-3.92-4.92-5.29-1.29-.86-2.7-1.54-4-2.3,3.16-5.71,5.63-6.7,10.93-4.65,11.05,4.27,21.86,2.77,32.57-1.3-1.55,1.05-3,2.44-4.67,3.08-7.27,2.72-14.9,2.16-22.46,2.17-5.89,0-6.24.47-4.68,6.16,2.39,8.74-.79,16.33-5.12,23.56-1.26,2.1-3.36,3.7-5.07,5.53.29-.66.55-1.34.88-2,2.54-5,5.3-10,7.56-15.13.81-1.87,2-4.49-.9-6.14,0-.28,0-.56,0-.84,0-.45,0-.91,0-1.36S757.48,465,757.47,464.54Z"/><path class="cls-9" d="M705.75,505c-2.44.8-5.54-1.7-7.5,1.5l-9,.75a8.48,8.48,0,0,0-13.5,0c-9.54.61-10.85-3.83-12.7-12.8a26.52,26.52,0,0,1,0-5.2l1.55-.05h0a26.43,26.43,0,0,0,0,4.36,22.4,22.4,0,0,0,1.42,3.94l.83,1.55a.34.34,0,0,1,0,.45l2.35,3.17c2.16,2.5,4.68,1.61,7.2.78a16.83,16.83,0,0,0,2.37-2.86c1.78-3.46,3.32-3.74,6.15-1.14,1.6,1.46,3.41,2.69,5.12,4h0c2,2.49,4,2.34,6,0l.07-.18.19,0,8.78-.82.23.43Z"/><path class="cls-10" d="M726,505l-.75-1.52c3.17-.41,6.85,1.59,9.71-1.92l-2.74-1.19c5.1-.8,8.48-2.94,7.93-4.88l-3.08-.43-.26-1c1.88-.77,4.18-1.13,5.52-2.44,1.11-1.1,4.36-2.71,1.13-5.14,3.41-.26,9-5,8.89-7.6l-2.56-.75-.13-1.4,5.42-1.12c-.16,5.25-4.07,8.48-6.54,12.52-2.64,4.31-8.78,7.16-6.12,13.83a3,3,0,0,0-.67.05C736.37,502.29,731.71,506.41,726,505Z"/><path class="cls-8" d="M625.06,448a.27.27,0,0,1,.35.22l.86.57h0c0,.5,0,1,0,1.49,1,.89,2,1.84,3.07,2.66.91.7,1.94,1.25,2.91,1.87-7.93.57-14.11-8.14-12.52-15.88,1.13-5.52,3-10.88,4.32-16.36.72-2.95,1-6,1.46-9l1.44,0c.1,4.56.71,9.19-2.36,13.21-.26.34.19,1.22.31,1.85a1,1,0,0,1-.09.49c-.06.28-.13.57-.19.86-.54.27-1.51.52-1.54.83-.37,4.6-.62,9.2-.84,13.81,0,.13.64.29,1,.43l.92,1.43,0-.05Z"/><path class="cls-6" d="M742.42,502c-2.66-6.67,3.48-9.52,6.12-13.83,2.47-4,6.38-7.27,6.54-12.52v0c.46-1.11,1-2.19,1.34-3.32.44-1.33.74-2.7,1.11-4.05,2.88,1.65,1.71,4.27.9,6.14-2.26,5.15-5,10.09-7.56,15.13-.33.64-.59,1.32-.88,2Z"/><path class="cls-8" d="M654,454.75h2.24c1.8-.38,3.59-.86,5.4-1.14,3.27-.51,6.71-1.38,9,3.15-1.63,1-3.28,2-4.85,3-2,1.31-4.41,2.33-3.51,5.48v1.5H660a64.42,64.42,0,0,1,2.23-6.58c1.29-2.83.48-3.88-2.5-4a55.68,55.68,0,0,1-5.73-.71Z"/><path class="cls-6" d="M664.55,489.2l-1.55.05V482.5l-.75-3.75c0-.75,0-1.5,0-2.25.82-1.41-2.38-3.44.7-4.5.79,1,1.91,1.95,2.3,3.11C666.8,479.85,666.22,484.57,664.55,489.2Z"/><path class="cls-8" d="M797.25,446.5a30.65,30.65,0,0,0,3.68-17.57c-.42-4.42-1.43-8.79-2.18-13.18.74.87,1.88,1.64,2.14,2.64a41.74,41.74,0,0,1-.07,23.42C800.28,443.57,798.47,445,797.25,446.5Z"/><path class="cls-11" d="M627.69,409.74l1.55,0H633l6.77-.7c3.84,0,7.76-.46,11.5.16,3,.5,5.87,2.28,8.8,3.5-10.58-3.89-21.6-1.4-32.4-2.24A4,4,0,0,0,627.69,409.74Z"/><path class="cls-9" d="M726,505c5.71,1.46,10.37-2.66,15.75-2.95-2,4.06-5.8,5.23-9.81,6a20.63,20.63,0,0,1-3.69,0Z"/><path class="cls-8" d="M675.75,507.25a8.48,8.48,0,0,1,13.5,0C684.75,506,680.25,504.9,675.75,507.25Z"/><path class="cls-8" d="M638.25,454.75h9v.75C644.16,456.31,641,457.63,638.25,454.75Z"/><path class="cls-8" d="M662.94,472c-3.08,1.06.12,3.09-.7,4.5q-1.11-3-2.24-6h2.23l.95.07a1.43,1.43,0,0,1-.09.5Z"/><path class="cls-9" d="M647.25,455.5v-.75H654v.75Z"/><path class="cls-9" d="M662.23,470.5H660v-3.75h2.25C662.24,468,662.24,469.25,662.23,470.5Z"/><path class="cls-8" d="M662.25,478.75l.75,3.75C660.65,481.67,661.28,480.24,662.25,478.75Z"/><path class="cls-8" d="M792,451l3.75-2.25Z"/><path class="cls-12" d="M627,413.54l-1.44,0c.55-1,1.1-2,1.64-3,0,.73-.09,1.47-.13,2.2a4.46,4.46,0,0,0,0,.73Z"/><path class="cls-13" d="M795.76,441.3a.73.73,0,0,0,0,.58l-.75,1.63,0,0c-1.31.53-2.64,1-3.94,1.59-2.77,1.2-5.47,3.32-8.3,3.49-6.16.36-12.39-.27-18.59-.5a.23.23,0,0,0-.36-.13l-1.12-.59a.26.26,0,0,0-.36-.17l-1-.79.06.05-.82-.77.05.06-.75-1.05c0-.36,0-.71.07-1.07l3.82-.38-4.6-3.44,1.2-.13c.09-1.19.69-2.76.15-3.49a6.46,6.46,0,0,1,.23-8.05c-6.11-2.77,1.55-4.94.5-7.58l-4-.55c.45-1.52.84-2.81,1.22-4.1l0,0c1.49-.41,3.8-.37,4.34-1.32,1.84-3.3,4.52-4.3,7.93-4.07,6.62.45,13.23,1,19.85,1.48h0l1.43.92-.07-.06.85.75-.05,0,1.66,1.36h0c-.92,2.15-1.14,4.1,1.49,5.25a.3.3,0,0,0,.39.16l.39,2.19a.63.63,0,0,0-.14.52c-.51.42-1.45.81-1.47,1.24-.12,3.54-.12,7.09,0,10.63,0,.42,1,.81,1.48,1.22a.83.83,0,0,0,.14.55l-.33,2.08h0l-1.88,1.12ZM786.27,440c.64-.83,3.89-.28,2.88-3.88a42.75,42.75,0,0,1-.82-6.93,8.07,8.07,0,0,1-.07-2c.18-1.37.52-2.72.68-4.09.1-.86.34-2.18-.1-2.55-4.08-3.41-8.77-4.18-14.9-2.8l3.19,2.46,2.32,1.82-2.12,1.73c0,4.31,3.15,4.11,6.06,4.52l-3.59.8ZM772.2,422.92l.36-1a24.83,24.83,0,0,0-3.34-1.36c-1.24,2.15-3.87,3.91-2.47,7a3.48,3.48,0,0,1,.4,1.52c-.11,2.19-.29,4.38-.39,5.78l4.41,3-.5.9-4.45.76c4.89,2.9,9.11,2.91,13.64,2.42-.77-1-2-2.14-1.83-2.52,1.07-2.08.4-2.74-1.63-3.52-2.19-.84-3.29-5.77-2.58-7.05l-5-5Z"/><path class="cls-14" d="M692.5,351.83a.82.82,0,0,0,.46.16q-.12,20.64-.25,41.28c-.17.41-.33.83-.5,1.24l-8.17.09c-.42-.71-.83-1.43-1.24-2.14-.32-1.95-1-3.93-.88-5.84.43-5.73,1.19-11.43,1.88-17.61H672.7V352.65l.63-.91Z"/><path class="cls-15" d="M755.08,475.6l-5.42,1.12.13,1.4,2.56.75c.1,2.64-5.48,7.34-8.89,7.6,3.23,2.43,0,4-1.13,5.14-1.34,1.31-3.64,1.67-5.52,2.44l.26,1,3.08.43c.55,1.94-2.83,4.08-7.93,4.88l2.74,1.19c-2.86,3.51-6.54,1.51-9.71,1.92a4,4,0,0,0-.22-.57l-1.27-1.65h0l-1.48-.79-.07.07,1.46-.81c3.65.79,6.13-.51,7.41-4.1l-2.82-.73,8.31-6.81L733,486.32a.49.49,0,0,0,.46-.15L739,485c1.61-1.92,3.22-3.85,5.11-6.09l-4.26-.55-.31-1.22,8.14-2.91c0-.43,0-.86-.07-1.29-4-.3-8.07-.73-12.11-.86-5.36-.19-10.72-.15-16.08-.2v.05c-.1-.23-.21-.47-.32-.7a6,6,0,0,0,.11-.74l1.74-2.86,0,.08,1.44-1.66.65-.73c10.19,0,20.38-.09,30.57,0a19.13,19.13,0,0,1,4,.81c0,.45,0,.91,0,1.36-2.75-.9-3.33,1.33-4.64,2.9-1.47,1.76-1.58,2.74.8,3,1.84.17,2,.91,1.44,2.34Z"/><path class="cls-16" d="M690,503.48c-1.71-1.33-3.52-2.56-5.12-4-2.83-2.6-4.37-2.32-6.15,1.14a16.83,16.83,0,0,1-2.37,2.86c.06-1.22.64-3.17.1-3.55-2.57-1.84-1.29-3.3-.2-4.84a5.41,5.41,0,0,1-.88-3.26c.18-1.29,1-2.47,1.32-3.76.51-2-1.21-4.17.55-6.26.37-.43-.87-2.09-1.14-3.24a4.48,4.48,0,0,1,0-2.64c.4-1,1.82-1.79,1.79-2.63s-1.24-1.81-1.93-2.72a3.69,3.69,0,0,0-.75-3.09c-3-3.42-7.11-1.94-10.8-2.31l.09-1.35c4.68,0,9.31-.41,13.81,1.79,1.51.74,3.8-.13,5.74-.26a5.71,5.71,0,0,0,.3,2,14.3,14.3,0,0,0,1.77,2.16l-2.83,1.55a23.69,23.69,0,0,1,5.08,1.07c.76.34,1,1.78,1.54,2.71-3,1.38-1.54,3.67-1.25,5.78.36,2.65.62,5.31.82,8,.07.83,0,2.27-.37,2.45-3.91,1.68-.83,3-.33,3.56l-1.65,4.12C690.25,499,689.41,501.7,690,503.48Z"/><path class="cls-15" d="M690,503.48c-.62-1.78.22-4.44-2.86-4.74l1.65-4.12c-.5-.58-3.58-1.88.33-3.56.41-.18.44-1.62.37-2.45-.2-2.67-.46-5.33-.82-8-.29-2.11-1.72-4.4,1.25-5.78-.5-.93-.78-2.37-1.54-2.71a23.69,23.69,0,0,0-5.08-1.07l2.83-1.55a14.3,14.3,0,0,1-1.77-2.16,5.71,5.71,0,0,1-.3-2h0a59.92,59.92,0,0,1,7.09,0c3.55.39,5.64,3.4,4.81,4.74l2.21,5c-3.64,1.25-3.36,1.08-1.59,3.93.7,1.13-.13,3.21-.32,5.65.94,1.49,1.29,5.11-.37,6.44-3.06,2.46-.09,3,.19,3.51-.5,1.86-1.19,3.09-1.06,4.24a16.06,16.06,0,0,0,1.56,4,.39.39,0,0,0-.27.51l-.19,0-.07.18-6,0Z"/><path class="cls-17" d="M762.33,447.17a.26.26,0,0,1,.36.17l1.12.59a.23.23,0,0,1,.36.13c1.44.72,2.85,2,4.33,2.07a69.5,69.5,0,0,0,13.76-.06c3.27-.46,6.33-2.39,9.46-3.7.88-.38,1.69-.91,2.53-1.37-1.07,1.28-1.9,3-3.26,3.78-10,6-24.5,5-33.61-2-1.92-1.49-3.76-1.49-5.28.32-6.86,8.19-15.94,7.41-25.11,6.38-2.84-.32-5.71-.38-8.49-.95-1.11-.22-2-1.47-3-2.26,1.94.19,3.87.47,5.81.55,7.22.28,14.47,1.88,21.65-.36,1.39-.44,2.72-1,4.08-1.57l.81-.81,2.86-3.87,0,0,0-1.51L750,442c-1.46-1.33-4.32-2.34-2.85-4.78,1.22-2,3.39-4.15,5.56-4.77,2.64-.76,3.31,2.12,4.09,4.27.84,2.35,2,4.57,3.09,6.84,0,.36,0,.71-.07,1.07l.75,1.05-.05-.05.82.76-.06-.05Z"/><path class="cls-18" d="M762,350.54c0,.23.07.45.12.68s-.1.56-.14.83h-7c-.26,2.36-.5,4.48-.73,6.6l-1.14-.1v-8.16l-11.37.82-1.57.88.06,0-6.91-.78a76,76,0,0,0-7.85.2,3.46,3.46,0,0,0-2.47,1.93c-1.78,6.59-3.34,13.24-5,19.87l1.32-.25c.54,1.29,1.51,2.58,1.55,3.89.17,5.85.08,11.72.08,17.58a3.47,3.47,0,0,0-.37.3,84.61,84.61,0,0,1-3.43-9.48,79.58,79.58,0,0,1-1.6-11c-.86-8.54,1.33-16.56,6.74-22.94,2-2.36,7-2.55,10.66-3.09A64.11,64.11,0,0,1,762,350.54Z"/><path class="cls-17" d="M719.22,409.67c.79-.94,1.48-2.59,2.39-2.72,10.43-1.45,20.94-3.2,30.6,3.14,2.56,1.68,5.11,1.42,7.74,0,9-5,18.46-3.79,27.86-1.48,1.06.26,1.81,1.74,2.71,2.65-7-2.75-14.32-2.39-21.58-2.12-4.7.17-7.94,3.16-10.56,6.83l0,0c-3.5.8-5.66-1.83-8.3-3.24-2.85-1.21-5.66-3.33-8.55-3.45C734.14,408.88,726.67,409.45,719.22,409.67Z"/><path class="cls-9" d="M719.2,470.45a6,6,0,0,1-.11.74,3.64,3.64,0,0,0-.73.05c-.7-.88-2.1-1.87-2-2.61a28.91,28.91,0,0,1,2.14-7c.89-2,.72-3.16-1.34-4.17-4.95-2.44-9.75-4.89-15.49-2-3.59,1.8-4.21,2.94-2.44,6.61,1.34,2.78,2.64,5.58,3.8,8.43.25.62-.19,1.52-.31,2.29-.3-.21-.82-.38-.87-.65a17.91,17.91,0,0,0-10.17-12.94c-.25-.13,0-2.48.45-2.66q7.27-2.82,14.72-5.19a5.78,5.78,0,0,1,3.2.51c4,1.37,7.94,2.77,11.86,4.29.92.36,2.26,1.18,2.31,1.87s-1.07,1.73-1.68,2.6c-1.53,2.19-3.18,4.31-4.49,6.62-.29.51.63,1.7,1,2.58C719.11,470,719.15,470.23,719.2,470.45Z"/><path class="cls-18" d="M684,394.6l8.17-.09a1.46,1.46,0,0,0,.65.1l.26.26c-2.73,1.21-5.41,3.3-8.2,3.45a247.66,247.66,0,0,1-25.85,0c-2.8-.14-5.49-2.21-8.22-3.4l.21-.22,9.69,0,1.52-1.41a.54.54,0,0,1,.05.43l8.2.27c.09-.22.18-.44.29-.65l1.9-.08,8.35,0,1.49,0Z"/><path class="cls-9" d="M664.54,463.81l-.09,1.35a1.09,1.09,0,0,1-.59.13l-1.61,0c-.9-3.15,1.56-4.17,3.51-5.48,1.57-1.06,3.22-2,4.85-3-2.26-4.53-5.7-3.66-9-3.15-1.81.28-3.6.76-5.4,1.14A11.44,11.44,0,0,1,670,451.79c3.66,1.78,7.57,3,11.38,4.51l4.63,1.78c-2.74,2.75-5.3,3.56-8.44,3.21a40.9,40.9,0,0,0-8.89-.39C667.22,461.07,665.92,462.79,664.54,463.81Z"/><path class="cls-19" d="M762.78,393.28c-5.79,1.7-11.5,4.39-17.39,4.83-7.21.55-14.57-.71-21.85-1.38-1-.09-2-1.23-2.94-1.88a3.47,3.47,0,0,1,.37-.3l10.58-.53c.87-1.77,1.75-1.31,2.65,0,1.11.29,2.25.91,3.34.83,6.71-.51,13.4-1.2,20.11-1.77,1.6-.13,3.22-.05,4.83-.07Z"/><path class="cls-18" d="M692.71,393.27q.12-20.64.25-41.28c1,1.86,2.77,3.69,2.82,5.57q.45,15.79.08,31.62c-.05,1.92-1.79,3.8-2.74,5.69l-.26-.26Z"/><path class="cls-18" d="M649.52,352h1.27l.21.07.21-.06q0,19.86,0,39.73l-.13,3-.21.22c-.93-1.93-2.6-3.85-2.65-5.8-.28-10.37-.23-20.75-.09-31.12C648.13,356,649,354,649.52,352Z"/><path class="cls-20" d="M660.06,412.67c-2.93-1.22-5.76-3-8.8-3.5-3.74-.62-7.66-.15-11.5-.16v-2.25h4.49a7.27,7.27,0,0,0,2.38.71A27.92,27.92,0,0,1,664,411.89c1.34.84,4.27.44,5.76-.5,5.31-3.38,10.85-5.19,17.16-4.69A10.86,10.86,0,0,0,690,406h2.24c1.55.75,3.12,1.45,4.63,2.26,1.74.94,3.43,2,5.14,3-6.48-2.86-13.34-2.2-20.12-2.24a12.32,12.32,0,0,0-9.63,3.75c-4.24,4.4-5.64,4.25-10.27.38-.34-.27-.94-.23-1.41-.33A.57.57,0,0,1,660.06,412.67Z"/><path class="cls-16" d="M696.59,502.79a16.06,16.06,0,0,1-1.56-4c-.13-1.15.56-2.38,1.06-4.24-.28-.52-3.25-1-.19-3.51,1.66-1.33,1.31-4.95.37-6.44.19-2.44,1-4.52.32-5.65-1.77-2.85-2.05-2.68,1.59-3.93l-2.21-5c.83-1.34-1.26-4.35-4.81-4.74a59.92,59.92,0,0,0-7.09,0c1.51-1.84,7.3-2.19,10-.88,4,1.94,5.44,5.78,5.45,9.44,0,8.75-.78,17.5-1.39,26.24C698.11,501.07,697.14,501.92,696.59,502.79Z"/><path class="cls-21" d="M757.51,466.05a19.13,19.13,0,0,0-4-.81c-10.19-.05-20.38,0-30.57,0,2-1.22,3.91-3.15,6.08-3.54,8-1.42,16-1.62,23.7,1.76a24.12,24.12,0,0,0,4.7,1C757.48,465,757.5,465.54,757.51,466.05Z"/><path class="cls-12" d="M702,411.24c-1.71-1-3.4-2-5.14-3-1.51-.81-3.08-1.51-4.63-2.26a22.54,22.54,0,0,1,16,7.35,13.31,13.31,0,0,0,2.11,2.07,25.26,25.26,0,0,0,3.07,1.56c.44-1.1.93-2.18,1.31-3.3a23,23,0,0,0,.56-2.46l3.06,5.32.09.05c0,.46.07.93.1,1.39-.22.28-.66.58-.65.85.13,2.76-.74,5.59-3.58,5.4-1.58-.11-3-3.06-4.43-4.79-1.18-1.43-2.25-3-3.38-4.45l-1,.06a.48.48,0,0,1-.48-.18l-.87-.6,0,0-.75-.79,0,0-.81-.74v0Z"/><path class="cls-18" d="M673.33,351.74l-.63.92-1.51-.65a4.82,4.82,0,0,0-.5-.27l-19.63-.38-.06-.86c10.81-3.27,21.93-2.23,32.94-2.08,2.8,0,5.57,1.79,8.35,2.75Z"/><path class="cls-16" d="M626.27,450.22c0-.5,0-1,0-1.49h32c.61-2.14-.19-5,3.26-4.46L660,448c-1.82,3-4.92,3.54-7.91,3.66-6,.24-11.94.22-17.89,0C631.55,451.56,628.92,450.72,626.27,450.22Z"/><path class="cls-17" d="M714,449.49c-5.64-2.58-10.26.18-15.41,2.21a32.4,32.4,0,0,1-24-.2c-1.08-.42-1.78-1.8-2.66-2.74l0-.06,4.45,1.54H678l1.49,0c.33.47.65,1.33,1,1.34q6.51.14,13,0c.34,0,.67-.87,1-1.34l6.75-2.25q2.25-1.5,4.52-3l6,.74,1.48,2.23Z"/><path class="cls-12" d="M690,406a10.86,10.86,0,0,1-3.12.7c-6.31-.5-11.85,1.31-17.16,4.69-1.49.94-4.42,1.34-5.76.5a27.92,27.92,0,0,0-17.33-4.43,7.27,7.27,0,0,1-2.38-.71c3-.2,6.13-.89,9.07-.47a34.61,34.61,0,0,1,9.47,3.06c4.05,1.89,7.07,0,10.38-1.82C678.52,404.65,684.21,404.56,690,406Z"/><path class="cls-19" d="M714,449.49l-.74-1.5.93-.07a36,36,0,0,0,5.41.86c9.14.1,18.29.07,27.44.08-1.37.53-2.7,1.13-4.09,1.57-7.18,2.24-14.43.64-21.65.36-1.94-.08-3.87-.36-5.81-.55Z"/><path class="cls-17" d="M660,448l1.5-3.73v0c0-.5.05-1,.08-1.51l-.82-.78c0-.24,0-.49,0-.73a3.31,3.31,0,0,0-.06-1.1c-1.16-2.4.21-4,2.13-4.51.89-.22,2.49,1.39,3.38,2.49a54.4,54.4,0,0,1,3.54,5.39c.76,1.73,1.52,3.47,2.29,5.2l0,.06c-1.07-.45-2.46-.63-3.16-1.42-2.33-2.63-4.45-3.26-6.9-.22C661.53,447.61,660.66,447.72,660,448Z"/><path class="cls-9" d="M702.75,484.75c.25.91.58,1.8.74,2.72.46,2.64,1.41,4.53,4.56,4.9a10.48,10.48,0,0,1,5.75,2.23c1.46,1.37,2.81,3.81,2.69,5.68-.18,2.63-2.5,3.77-5.29,3l1.18-1.17c.44-.63.88-1.25,1.31-1.88l.21.29-.23-.27.61,0c-.14-.14-.28-.29-.41-.44,0-.38,0-.76,0-1.14l-3-1.66-.07,0c-.59-.56-1.13-1.52-1.79-1.62C702.53,494.29,700.5,490.93,702.75,484.75Z"/><path class="cls-22" d="M758.38,415.92c2.62-3.67,5.86-6.66,10.56-6.83,7.26-.27,14.59-.63,21.58,2.12,0,.27,0,.54,0,.8-6.62-.5-13.23-1-19.85-1.48-3.41-.23-6.09.77-7.93,4.07C762.18,415.55,759.87,415.51,758.38,415.92Z"/><path class="cls-23" d="M712.38,502.06l-1.18,1.17-.18.18-5.69-.5-.23-.43c-1.12-4.2.61-5.89,5.68-5.54l.07,0,3,1.66c0,.38,0,.76,0,1.14a.31.31,0,0,0-.2.48l.23.27-.21-.29C713.26,500.81,712.82,501.43,712.38,502.06Z"/><path class="cls-22" d="M719.22,409.67c7.45-.22,14.92-.79,22.34-.48,2.89.12,5.7,2.24,8.55,3.45l-.32.33c-2.94-.82-5.85-2.23-8.81-2.34-8.2-.29-16.41-.05-24.62,0l-.25-.24Z"/><path class="cls-22" d="M794.25,445c-.84.46-1.65,1-2.53,1.37-3.13,1.31-6.19,3.24-9.46,3.7a69.5,69.5,0,0,1-13.76.06c-1.48-.09-2.89-1.35-4.33-2.07,6.2.23,12.43.86,18.59.5,2.83-.17,5.53-2.29,8.3-3.49,1.3-.57,2.63-1.06,3.94-1.59Z"/><path class="cls-17" d="M796.6,436.71a.83.83,0,0,1-.14-.55q0-6.54,0-13.09a.63.63,0,0,1,.14-.52l.77-.05c.45.49,1.28,1,1.3,1.46q.15,6,0,12.11c0,.5-.85,1-1.3,1.46Z"/><path class="cls-24" d="M673.33,351.74l19-.57a.83.83,0,0,1,.2.66Z"/><path class="cls-12" d="M639.76,406.76V409l-6.77.7C634.21,406.36,637.26,407.18,639.76,406.76Z"/><path class="cls-9" d="M702.75,474.25v0Z"/><path class="cls-11" d="M718.35,416.55l-3.06-5.32.83-.86.24.24c-1.19,3.69,2.55,1.28,3.5,3.29Z"/><path class="cls-22" d="M795.81,420.2c-2.63-1.15-2.41-3.1-1.49-5.25l1.42,1.56C795.76,417.74,795.78,419,795.81,420.2Z"/><path class="cls-17" d="M795.81,420.2c0-1.23,0-2.46-.07-3.69l1.53,3.74-1.07.11A.3.3,0,0,1,795.81,420.2Z"/><path class="cls-22" d="M795.76,441.3l-1.38-1.39,1.88-1.12.27,1.72C796.28,440.78,796,441,795.76,441.3Z"/><path class="cls-19" d="M763.5,393.25a4.34,4.34,0,0,0-.72,0l-.3-.29c0-1.15.09-2.29.13-3.43l.88-.06c0,1.25,0,2.5,0,3.75Z"/><path class="cls-21" d="M719.2,470.45c-.05-.22-.09-.45-.13-.67l1.87-2.19Z"/><path class="cls-17" d="M796.53,440.51l-.27-1.72h0l1,.21C797,439.51,796.78,440,796.53,440.51Z"/><path class="cls-21" d="M722.34,466l-1.44,1.66Z"/><path class="cls-22" d="M794.3,414.94l-1.66-1.36Z"/><path class="cls-22" d="M796.2,420.36l1.07-.11.09,2.25-.77.05Z"/><path class="cls-22" d="M797.26,439l-1-.21.33-2.08.75.82Z"/><path class="cls-22" d="M791.91,412.92l-1.43-.92Z"/><path class="cls-22" d="M795,443.51l.75-1.63Z"/><path class="cls-22" d="M792.69,413.61l-.85-.75Z"/><path class="cls-11" d="M672,448.7c-.77-1.73-1.53-3.47-2.29-5.2-.67-3.09-1-6.3-2.1-9.25-1.51-4.16-5-4.55-8-1.25a27.39,27.39,0,0,1-2.63,2.28c-.25-1-.49-1.94-.74-2.91l3.51-2.8-.77-.94c3.14.16,6,0,5.38-3.95l-4.36-2.12,3-2.94-2.19-4.12c-.06-.52-.2-1.61-.33-2.7.47.1,1.07.06,1.41.33,4.63,3.87,6,4,10.27-.38a12.32,12.32,0,0,1,9.63-3.75c6.78,0,13.64-.62,20.12,2.24l.67,1.59c-7.63-3.09-15.63-2.55-23.54-2.05-1.78.11-3.45,2.22-5.14,3.46-.67.48-1.28,1.57-1.88,1.54-3.13-.16-3.69,1.69-3.79,4.23l4.26.64c-.12,2.75-6.55,4.57-2,7.13,0,3-1,6.79.19,7.66,3.33,2.47,1,3.21-.74,4.3l4.22,3.35L671,444c4,6.21,22.39,7.12,30.91,1.72-.22.77-.44,1.55-.65,2.33l-6.75,2.25h-15l-1.49,0h-1.52Z"/><path class="cls-25" d="M629.93,416.76c7.47.16,14.93.37,22.4.44,2.2,0,3.65.58,3.71,2.5l-2.82,3.11,4.23,2.1c-1.6.55-2.75,1.25-3.92,1.29-4,.14-8,0-12,.07-4.2.08-8.5-.66-12.36,2-.85.59-2.43.14-3.67.16a54.22,54.22,0,0,0,5.18-3.66,40,40,0,0,0,3.74-4.25Z"/><path class="cls-26" d="M656.3,432.37c.25,1,.49,1.94.74,2.91l-.75.07c-2.22-.54-4.42-1.26-6.68-1.58a14.55,14.55,0,0,0-9.58,2c-1.88,1.06-3,1.93-2.37,3.7.32.87,2.16,1.64,3.33,1.67,5.59.16,11.18.05,16.77,0l0,0a2.66,2.66,0,0,0,0,.69c-8.51-.13-17.08.91-25.52-.58,0-.41,0-.82-.07-1.22.85-.18,2-.08,2.47-.6a3.48,3.48,0,0,0,.8-2.62,8.09,8.09,0,0,0-1.48-2.54c1.1-.63,2.17-1.75,3.3-1.8,4.47-.22,9-.09,13.43-.11C652.57,432.46,654.44,432.4,656.3,432.37Z"/><path class="cls-12" d="M629.93,416.76l4.5,3.78a40,40,0,0,1-3.74,4.25,54.22,54.22,0,0,1-5.18,3.66l-.29.15h-.32c-.12-.63-.57-1.51-.31-1.85,3.07-4,2.46-8.65,2.36-13.21l.08-.07c.75.78,1.5,1.55,2.24,2.33Z"/><path class="cls-16" d="M624.62,430c.06-.29.13-.58.19-.86l3.26.58c-.73,3.3-1.44,6.4-2.07,9.52a3.21,3.21,0,0,0,.12,2.21c2.23,2.93,0,2.87-1.92,3l-.3-.25c.45-4.05.93-8.1,1.3-12.16A6.34,6.34,0,0,0,624.62,430Z"/><path class="cls-25" d="M629.27,415.8c-.74-.78-1.49-1.55-2.24-2.33a4.46,4.46,0,0,1,0-.73h4.55Z"/><path class="cls-19" d="M657.78,441.93a2.66,2.66,0,0,1,0-.69h3c0,.24,0,.49,0,.73Z"/><path class="cls-16" d="M624.13,446.45l-.92-1.43.69-.85.3.25Z"/><path class="cls-16" d="M661.6,442.74c0,.5-.06,1-.08,1.51C661.54,443.75,661.57,443.24,661.6,442.74Z"/><path class="cls-16" d="M625.06,448l-1-1.55Z"/><path class="cls-16" d="M626.27,448.74l-.86-.57Z"/><path class="cls-24" d="M651.06,351.36l19.63.38-19.48.27-.21.06-.21-.07A2.73,2.73,0,0,0,651.06,351.36Z"/><path class="cls-27" d="M715.2,462.76c-2.89,8.5,1,13.78,6.3,18.7,3.34,3.1,1.74,10.1-2.46,12-.12,0-.25.17-.34.15-3.29-1-6.59-1.9-9.86-2.92-2.9-.91-3.39-4.26-3.39-8.85,0-5.87-1.34-11.74-1.94-17.62-.17-1.66-.44-4.07.47-4.92,2.52-2.36,5.9-2,8.7-.42C714,459.58,714.52,461.63,715.2,462.76Z"/><path class="cls-11" d="M719.4,471.84c5.36.05,10.72,0,16.08.2,4,.13,8.07.56,12.11.86,0,.43,0,.86.07,1.29l-8.14,2.91.31,1.22,4.26.55c-1.89,2.24-3.5,4.17-5.11,6.09l-.3-.27c-.93-2.71-3.63-3.51-7.42-2.2l-.06-2.41c2.1-.78,5.42,1,6-2.86l1.2-.65-.07-.65H725.45c-.79-3.52-4-2.42-6.17-3.22Z"/><path class="cls-9" d="M723.7,499.69l-1.46.81c-.4-1.06-1.4-2.34-1.11-3.15,1-2.83,2.51-5.5,3.82-8.24,2.1-4.39,1.45-7-2.44-9.9a18,18,0,0,1-3.45-2.76c-.58-.73-2.57-2.17.18-2.95L726,478c.14.47.13,1.1.44,1.37,2.77,2.43,2.67,5.07,1.09,8.17a79.82,79.82,0,0,0-3,7.7C724.23,496.73,724,498.21,723.7,499.69Z"/><path class="cls-6" d="M726,478l-6.75-4.51c0-.27,0-.54,0-.8,2.2.8,5.38-.3,6.17,3.22l.57,1.23c0,.28,0,.57,0,.85Z"/><path class="cls-6" d="M705.33,502.91l5.69.5c-1,2.93-3.52,1-5.27,1.59Z"/><path class="cls-10" d="M723.76,501.21l1.27,1.65Z"/><path class="cls-10" d="M722.31,500.43l1.48.79Z"/><path class="cls-21" d="M718.36,471.24a3.64,3.64,0,0,1,.73-.05c.11.23.22.47.32.7Z"/><path class="cls-6" d="M763.5,393.25c0-1.25,0-2.5,0-3.75.25-9.65.68-19.3.63-28.94,0-2.85-1.42-5.7-2.18-8.54l0,0c0-.27.09-.55.14-.83,4.07.29,4.24,3.81,4.25,6.31,0,10.76-.32,21.51-.74,32.26C765.56,391,764.23,392.1,763.5,393.25Z"/><path class="cls-10" d="M755.09,475.62c.56-1.43.4-2.17-1.44-2.34-2.38-.23-2.27-1.21-.8-3,1.31-1.57,1.89-3.8,4.64-2.9,0,.28,0,.56,0,.84-.37,1.35-.67,2.72-1.11,4.05C756.06,473.43,755.55,474.51,755.09,475.62Z"/><path class="cls-15" d="M663.86,465.29a1.09,1.09,0,0,0,.59-.13c3.69.37,7.81-1.11,10.8,2.31a3.69,3.69,0,0,1,.75,3.09c.69.91,1.88,1.78,1.93,2.72s-1.39,1.65-1.79,2.63a4.48,4.48,0,0,0,0,2.64c.27,1.15,1.51,2.81,1.14,3.24-1.76,2.09,0,4.25-.55,6.26-.33,1.29-1.14,2.47-1.32,3.76a5.41,5.41,0,0,0,.88,3.26c-1.09,1.54-2.37,3,.2,4.84.54.38,0,2.33-.1,3.55-2.52.83-5,1.72-7.2-.78l-2.35-3.17a.34.34,0,0,0,0-.45l2.68-4.23c-.69-.84-4.18-1.69-.22-3.56.46-.22.71-1.56.56-2.29-.34-1.73-1.23-3.37-1.44-5.11a22.36,22.36,0,0,1,.29-5.28,6.76,6.76,0,0,1,.9-2.89c1.16-1.74,1.51-3.1-1-3.67-1.8-.41-3.64-.65-5.46-1a1.43,1.43,0,0,0,.09-.5l1.78-1.19C664.57,467.9,664.21,466.6,663.86,465.29Z"/><path class="cls-19" d="M663.09,471.07c1.82.31,3.66.55,5.46,1,2.53.57,2.18,1.93,1,3.67a6.76,6.76,0,0,0-.9,2.89,22.36,22.36,0,0,0-.29,5.28c.21,1.74,1.1,3.38,1.44,5.11.15.73-.1,2.07-.56,2.29-4,1.87-.47,2.72.22,3.56l-2.68,4.23c-.28-.52-.55-1-.83-1.55a24.53,24.53,0,0,0,0-4.37,21.85,21.85,0,0,0-1.43-3.93h0c1.67-4.63,2.25-9.35.69-14.09-.39-1.16-1.51-2.08-2.3-3.11Z"/><path class="cls-6" d="M664.54,489.21a21.85,21.85,0,0,1,1.43,3.93,24.53,24.53,0,0,1,0,4.37,22.4,22.4,0,0,1-1.42-3.94A26.43,26.43,0,0,1,664.54,489.21Z"/><path class="cls-16" d="M690,503.47l6,0C694,505.81,692,506,690,503.47Z"/><path class="cls-6" d="M666.84,499.51l2.35,3.17Z"/><path class="cls-12" d="M623.9,444.17l-.69.85c-.33-.14-1-.3-1-.43.22-4.61.47-9.21.84-13.81,0-.31,1-.56,1.54-.83a6.34,6.34,0,0,1,.58,2.06C624.83,436.07,624.35,440.12,623.9,444.17Z"/><path class="cls-6" d="M663.86,465.29c.35,1.31.71,2.61,1.1,4.09l-1.78,1.19-.95-.07c0-1.25,0-2.5,0-3.75v-1.5Z"/><path class="cls-22" d="M750.11,412.64c2.64,1.41,4.8,4,8.3,3.24-.38,1.29-.77,2.58-1.22,4.1l4,.55c1,2.64-6.61,4.81-.5,7.58a6.46,6.46,0,0,0-.23,8.05c.54.73-.06,2.3-.15,3.49l-1.2.13,4.6,3.44-3.82.38c-1-2.27-2.25-4.49-3.09-6.84-.78-2.15-1.45-5-4.09-4.27-2.17.62-4.34,2.74-5.56,4.77-1.47,2.44,1.39,3.45,2.85,4.78l-3-.11a31.71,31.71,0,0,0-4.3-.66c-5.42-.07-10.85,0-16.46,0v-3.75c6.23-6.16,12.76-4.42,19-1.75.46-1.63.73-2.55,1-3.48l3-3.7c2.86.67,4.65-.54,4.26-4l-4.28-1.75,3.22-3.26-2.32-3.29c-.12-1.3-.22-2.28-.31-3.26Z"/><path class="cls-28" d="M786.27,440l-6.47-10.88,3.59-.8c-2.91-.41-6.08-.21-6.06-4.52l2.12-1.73-2.32-1.82-3.19-2.46c6.13-1.38,10.82-.61,14.9,2.8.44.37.2,1.69.1,2.55-.16,1.37-.5,2.72-.68,4.09a8.07,8.07,0,0,0,.07,2,42.75,42.75,0,0,0,.82,6.93C790.16,439.73,786.91,439.18,786.27,440Z"/><path class="cls-26" d="M772.2,422.92l-3.35.9,5,5c-.71,1.28.39,6.21,2.58,7.05,2,.78,2.7,1.44,1.63,3.52-.19.38,1.06,1.49,1.83,2.52-4.53.49-8.75.48-13.64-2.42l4.45-.76.5-.9-4.41-3c.1-1.4.28-3.59.39-5.78a3.48,3.48,0,0,0-.4-1.52c-1.4-3.09,1.23-4.85,2.47-7a24.83,24.83,0,0,1,3.34,1.36Z"/><path class="cls-22" d="M796.45,423.07q0,6.56,0,13.09c-.52-.41-1.46-.8-1.48-1.22-.12-3.54-.12-7.09,0-10.63C795,423.88,795.94,423.49,796.45,423.07Z"/><path class="cls-22" d="M760.59,445.72l-.75-1.05Z"/><path class="cls-22" d="M763.81,447.93l-1.12-.59Z"/><path class="cls-22" d="M762.33,447.17l-1-.79Z"/><path class="cls-22" d="M761.36,446.43l-.82-.76Z"/><path class="cls-29" d="M671.19,352l1.51.65V369h11.1c-.69,6.18-1.45,11.88-1.88,17.61-.15,1.91.56,3.89.88,5.84l-.25.85-1.49,0V371H662.57a5.18,5.18,0,0,0-.12,1.91c1,2.85,1.83,5.62-.17,8.44-.29.4,0,1.21,0,1.83q0,5.08,0,10.17l-1.52,1.41c0-.75-.07-1.5-.11-2.25v-23.4h10.55Z"/><path class="cls-23" d="M682.55,393.31l.25-.85c.41.71.82,1.43,1.24,2.14Z"/><path class="cls-23" d="M692.71,393.27l.15,1.34a1.46,1.46,0,0,1-.65-.1C692.38,394.1,692.54,393.68,692.71,393.27Z"/><path class="cls-6" d="M724.5,495.25a79.82,79.82,0,0,1,3-7.7c1.58-3.1,1.68-5.74-1.09-8.17-.31-.27-.3-.9-.44-1.37h0l2.26-.76,3,0,0,2.8.06,2.41,2.21,3a5.07,5.07,0,0,0,0,.68.49.49,0,0,1-.46.15c-.64.6-1.33,1.15-1.93,1.8C728.84,490.48,726.68,492.87,724.5,495.25Z"/><path class="cls-19" d="M724.5,495.25c2.18-2.38,4.34-4.77,6.54-7.13.6-.65,1.29-1.2,1.93-1.8l3.63,1.73-8.31,6.81,2.82.73c-1.28,3.59-3.76,4.89-7.41,4.1C724,498.21,724.23,496.73,724.5,495.25Z"/><path class="cls-11" d="M733.43,486.17a5.07,5.07,0,0,1,0-.68l5.21-.8.3.27Z"/><path class="cls-7" d="M749.79,413c.09,1,.19,2,.31,3.26l2.32,3.29-3.22,3.26,4.28,1.75c.39,3.49-1.4,4.7-4.26,4l-3,3.7-13.08.21c-2.49,0-5-.12-7.47.13a4.11,4.11,0,0,0-2.53,1.73c-.33.47,0,1.62.38,2.31a9.87,9.87,0,0,0,1.64,1.87c-.91.38-1.84.74-2.74,1.15a12.58,12.58,0,0,0-1.36.82l.11,1.1c8.56,1,17.19.34,25.78.35l3,.11.68.67,0,1.51,0,0c-3-.24-3.22,1.61-2.86,3.87l-.81.81c-9.14,0-18.29,0-27.43-.08a36,36,0,0,1-5.41-.86c-.35-1-.69-2-1-3.05,3.18-1.1,3.12-1.07,2-3.51a3.94,3.94,0,0,1,0-2.26c.62-3.1,1.32-6.18,2-9.47l-3.13-.41a5.63,5.63,0,0,0,0-.58l6-1.55,1.63-.68v0c6.87-.06,13.74-.07,20.61-.23,1.3,0,2.58-.72,4.46-1.28l-4.36-2.15,3.32-3.49c-1.39-.74-2.66-2-3.95-2-6.49-.17-13,0-19.48,0l-3.8-.72-.09-.05,1.51-2.65c-1-2-4.69.4-3.5-3.29,8.21,0,16.42-.27,24.62,0C743.94,410.74,746.85,412.15,749.79,413Z"/><path class="cls-19" d="M747.85,448.05c-.36-2.26-.16-4.11,2.86-3.87Z"/><path class="cls-19" d="M750.67,444.22l0-1.51Z"/><path class="cls-13" d="M762.61,389.56c0,1.14-.08,2.28-.13,3.43-1.61,0-3.23-.06-4.83.07-6.71.57-13.4,1.26-20.11,1.77-1.09.08-2.23-.54-3.34-.83,0-4.82.13-9.65.06-14.47,0-.74-.78-1.47-1.2-2.21-.56.75-1.6,1.48-1.61,2.24-.09,4.82,0,9.64.1,14.46l-10.58.53c0-5.86.09-11.73-.08-17.58,0-1.31-1-2.6-1.55-3.89l-1.32.25c1.62-6.63,3.18-13.28,5-19.87a3.46,3.46,0,0,1,2.47-1.93,76,76,0,0,1,7.85-.2l6.91.78-.06,0v6.61h1.57v-7.48l11.37-.82v8.16l1.14.1c.23-2.12.47-4.24.73-6.6h7l0,0c0,2.71.11,5.42-.07,8.12,0,.85-.86,1.65-1.33,2.47H733.46v-8.05a21.38,21.38,0,0,0-2,7.2c-.25,4.16-.07,8.34-.07,12.51,1.87-3,2.3-7.25,4.62-9.09s6.5-1.21,10.15-1.71c-.24,1.78-.37,2.7-.57,4.22,1.17-.48,2.39-.63,2.52-1.09.89-3.2,3.36-2.77,5.7-2.72L759,364l0,.76c-.23.75-.45,1.5-.67,2.25l2.78.11,1,.61.12,2.21-4.74,1.72c.85,1,1.53,1.88,2.25,2.7.48.55,1.47,1.14,1.4,1.57-.13.75-.88,1.4-1.41,2.06s-1.55,1.34-1.49,1.92,1.13,1.18,1.69,1.83,1.13,1.16,1.22,1.81a1.88,1.88,0,0,1-1,1.53c-3.31.39-1.69,2.5-1.85,4.21Z"/><path class="cls-26" d="M741.72,351.21v7.48h-1.57v-6.61Z"/><path class="cls-26" d="M740.21,352.11l-6.91-.78Z"/><path class="cls-13" d="M662.27,393.33q0-5.08,0-10.17c0-.62-.3-1.43,0-1.83,2-2.82,1.22-5.59.17-8.44a5.18,5.18,0,0,1,.12-1.91h18.49v22.36l-8.35,0V384h-1.39l-.51,9.38c-.11.21-.2.43-.29.65l-8.2-.27A.54.54,0,0,0,662.27,393.33Z"/><path class="cls-15" d="M660.64,392.49c0,.75.07,1.5.11,2.25l-9.69,0,.13-3Z"/><path class="cls-29" d="M670.81,393.38l.51-9.38h1.39v9.31Z"/><path class="cls-29" d="M662.32,393.76l8.2.27Z"/><path class="cls-29" d="M731.55,394c-.06-4.82-.19-9.64-.1-14.46,0-.76,1-1.49,1.61-2.24.42.74,1.19,1.47,1.2,2.21.07,4.82,0,9.65-.06,14.47C733.3,392.71,732.42,392.25,731.55,394Z"/><path class="cls-14" d="M660.64,392.49l-9.45-.75q0-19.87,0-39.73l19.48-.27a4.82,4.82,0,0,1,.5.27v17.08H660.64Z"/><path class="cls-30" d="M701.9,445.67c-8.52,5.4-26.9,4.49-30.91-1.72l3.31-.86-4.22-3.35c1.77-1.09,4.07-1.83.74-4.3-1.18-.87-.19-4.66-.19-7.66-4.59-2.56,1.84-4.38,2-7.13l-4.26-.64c.1-2.54.66-4.39,3.79-4.23.6,0,1.21-1.06,1.88-1.54,1.69-1.24,3.36-3.35,5.14-3.46,7.91-.5,15.91-1,23.54,2.05v0l.81.74,0,0,.75.79,0,0,.87.6a.48.48,0,0,0,.48.18c-1.51,2.42-1.41,4.34,1.66,5.34a.75.75,0,0,0,.18.54c-2,3.92-1.38,8.21-1.61,12.37,0,.73-.17,1.85.22,2.14,2.68,2,.89,3.14-.57,4.19.33,1.12.62,2.11.92,3.09-.19.28-.37.56-.55.84l-3.89,2.11Zm-4.26-4.73c.78-1.55,2.11-3.1,2.27-4.76.22-2.26-.74-4.62-.67-6.92a76.91,76.91,0,0,1,1.12-7.62c0-.36-.36-.9-.71-1.18-4.09-3.28-8.74-4-14.82-2.69l6.51,4.78-3.3,1.16c1.34,3.74,1.34,3.74,7.1,4.42l-4.29,1.18C693.09,433.15,695.07,436.55,697.64,440.94Zm-13.31-12.27-4.28-4.7,3.11-1.15.29-1.09c-1.19-.41-3.12-1.47-3.43-1.11-1.18,1.36-2.49,3.14-2.57,4.82-.15,3.35.48,6.74.75,9.72l3.85,2.56-.51,1-4,.62c4.41,3.35,8.71,2.83,12.31,2.68-.22-1.93,0-3.66-.68-4.92-.77-1.44-2.63-2.29-3.45-3.72S684.7,430.06,684.33,428.67Z"/><path class="cls-20" d="M707.39,420.94a.75.75,0,0,1-.18-.54c-.24-1.8-.47-3.6-.71-5.4,1.13,1.49,2.2,3,3.38,4.45,1.42,1.73,2.85,4.68,4.43,4.79,2.84.19,3.71-2.64,3.58-5.4,0-.27.43-.57.65-.85l3.68,0c-.51,1.66-.6,3.69-1.64,4.9-1.88,2.16-4.32,3.83-6.53,5.71,0,.19,0,.39,0,.59L712.34,432l-1.61-.39c-.66-2.18-1.32-4.36-2-6.53C708.3,423.66,707.84,422.3,707.39,420.94Z"/><path class="cls-11" d="M706.5,415c.24,1.8.47,3.6.71,5.4-3.07-1-3.17-2.92-1.66-5.34Z"/><path class="cls-11" d="M722.22,418l-3.68,0c0-.46-.07-.93-.1-1.39l3.8.72c0,.22,0,.43,0,.65Z"/><path class="cls-11" d="M703.49,413.53l-.81-.74Z"/><path class="cls-11" d="M704.22,414.3l-.75-.79Z"/><path class="cls-11" d="M705.07,414.88l-.87-.6Z"/><path class="cls-11" d="M707.39,420.94c.45,1.36.91,2.72,1.34,4.09.68,2.17,1.34,4.35,2,6.53l1.61.39,1.68-2.72,3.13.4c-.72,3.29-1.42,6.37-2,9.47a3.94,3.94,0,0,0,0,2.26c1.15,2.44,1.21,2.41-2,3.51.34,1,.68,2,1,3.05l-.93.07c-.5-.74-1-1.49-1.48-2.23l-.39-4.95c-1.32.57-2.64,1.14-4,1.69a6.16,6.16,0,0,1-1.07.23c-.3-1-.59-2-.92-3.09,1.46-1.05,3.25-2.19.57-4.19-.39-.29-.26-1.41-.22-2.14C706,429.15,705.35,424.86,707.39,420.94Z"/><path class="cls-20" d="M706.35,442.73a6.16,6.16,0,0,0,1.07-.23c1.34-.55,2.66-1.12,4-1.69l.39,4.95-6-.74,0,0,0-1.43C706,443.29,706.16,443,706.35,442.73Z"/><path class="cls-20" d="M679.5,450.25h15c-.33.47-.66,1.33-1,1.34q-6.5.14-13,0C680.15,451.58,679.83,450.72,679.5,450.25Z"/><path class="cls-20" d="M701.25,448c.21-.78.43-1.56.65-2.33h0l3.84-.68,0,0Q703.51,446.51,701.25,448Z"/><path class="cls-20" d="M676.49,450.24h0Z"/><path class="cls-20" d="M660.76,441.23h-3l0,0c-.42-2-3.48-3.29-1.47-5.87l.75-.07a27.39,27.39,0,0,0,2.63-2.28c2.94-3.3,6.47-2.91,8,1.25,1.07,2.95,1.43,6.16,2.1,9.25a54.4,54.4,0,0,0-3.54-5.39c-.89-1.1-2.49-2.71-3.38-2.49-1.92.48-3.29,2.11-2.13,4.51A3.31,3.31,0,0,1,660.76,441.23Z"/><path class="cls-6" d="M713.89,498.58l-3-1.66Z"/><path class="cls-6" d="M712.38,502.06c.44-.63.88-1.25,1.31-1.88C713.26,500.81,712.82,501.43,712.38,502.06Z"/><path class="cls-6" d="M713.67,500.2a.31.31,0,0,1,.2-.48c.13.15.27.3.41.44Z"/><path class="cls-18" d="M760.54,362.61c.47-.82,1.28-1.62,1.33-2.47.18-2.7.07-5.41.07-8.12.76,2.84,2.16,5.69,2.18,8.54,0,9.64-.38,19.29-.63,28.94l-.88.06-4.34-.25c.16-1.71-1.46-3.82,1.85-4.21a1.88,1.88,0,0,0,1-1.53c-.09-.65-.74-1.25-1.22-1.81s-1.63-1.17-1.69-1.83,1-1.26,1.49-1.92,1.28-1.31,1.41-2.06c.07-.43-.92-1-1.4-1.57-.72-.82-1.4-1.67-2.25-2.7l4.74-1.72-.12-2.21-1-.61-2.11-2.36,0-.76Z"/><path class="cls-19" d="M656.29,435.35c-2,2.58,1.05,3.9,1.47,5.87-5.59,0-11.18.12-16.77,0-1.17,0-3-.8-3.33-1.67-.64-1.77.49-2.64,2.37-3.7a14.55,14.55,0,0,1,9.58-2C651.87,434.09,654.07,434.81,656.29,435.35Z"/><path class="cls-24" d="M731.23,477.28l-3,0-2.24-.09-.57-1.23h12.93l.07.65-1.2.65Z"/><path class="cls-19" d="M738.68,484.69l-5.21.8-2.21-3C735.05,481.18,737.75,482,738.68,484.69Z"/><path class="cls-20" d="M731.23,477.28l6-.06c-.63,3.87-4,2.08-6,2.86Z"/><path class="cls-20" d="M726,477.15l2.24.09L726,478C726,477.72,726,477.43,726,477.15Z"/><path class="cls-26" d="M747,441.93c-8.59,0-17.22.62-25.78-.35l-.11-1.1a12.58,12.58,0,0,1,1.36-.82c.9-.41,1.83-.77,2.74-1.15a9.87,9.87,0,0,1-1.64-1.87c-.35-.69-.71-1.84-.38-2.31a4.11,4.11,0,0,1,2.53-1.73c2.47-.25,5-.1,7.47-.13l13.08-.21c-.26.93-.53,1.85-1,3.48-6.28-2.67-12.81-4.41-19,1.75v3.75c5.61,0,11,0,16.46,0A31.71,31.71,0,0,1,747,441.93Z"/><path class="cls-11" d="M714.05,428.64c2.21-1.88,4.65-3.55,6.53-5.71,1-1.21,1.13-3.24,1.64-4.9l.06-.06,19.19,1.36c-.77,6.45-1.51,6.95-7.19,6.09a68.43,68.43,0,0,0-10-.6c-.87,0-1.74,1.07-2.62,1.64v0l-1.63.68Z"/><path class="cls-28" d="M721.64,426.46c.88-.57,1.75-1.64,2.62-1.64a68.43,68.43,0,0,1,10,.6c5.68.86,6.42.36,7.19-6.09L722.28,418c0-.22,0-.43,0-.65,6.49,0,13-.18,19.48,0,1.29,0,2.56,1.26,3.95,2l-3.32,3.49,4.36,2.15c-1.88.56-3.16,1.24-4.46,1.28C735.38,426.39,728.51,426.4,721.64,426.46Z"/><path class="cls-28" d="M720,427.09l1.63-.68Z"/><path class="cls-29" d="M760.54,362.61,759,364l-5.22-.14c-2.34-.05-4.81-.48-5.7,2.72-.13.46-1.35.61-2.52,1.09.2-1.52.33-2.44.57-4.22-3.65.5-7.86-.1-10.15,1.71s-2.75,6.06-4.62,9.09c0-4.17-.18-8.35.07-12.51a21.38,21.38,0,0,1,2-7.2v8.05Z"/><path class="cls-29" d="M759.05,364.78l2.11,2.36-2.78-.11C758.6,366.28,758.82,365.53,759.05,364.78Z"/><path class="cls-29" d="M762.12,367.75l.12,2.21Z"/><path class="cls-28" d="M697.64,440.94c-2.57-4.39-4.55-7.79-6.79-11.63l4.29-1.18c-5.76-.68-5.76-.68-7.1-4.42l3.3-1.16-6.51-4.78c6.08-1.33,10.73-.59,14.82,2.69.35.28.76.82.71,1.18a76.91,76.91,0,0,0-1.12,7.62c-.07,2.3.89,4.66.67,6.92C699.75,437.84,698.42,439.39,697.64,440.94Z"/><path class="cls-26" d="M684.33,428.67c.37,1.39.51,3.25,1.34,4.71s2.68,2.28,3.45,3.72c.67,1.26.46,3,.68,4.92-3.6.15-7.9.67-12.31-2.68l4-.62.51-1-3.85-2.56c-.27-3-.9-6.37-.75-9.72.08-1.68,1.39-3.46,2.57-4.82.31-.36,2.24.7,3.43,1.11l-.29,1.09L680.05,424Z"/><path class="cls-11" d="M705.75,445l-3.84.68,3.89-2.11C705.78,444.05,705.76,444.52,705.75,445Z"/></svg>