<svg id="レイヤー_1" data-name="レイヤー 1" xmlns="http://www.w3.org/2000/svg" viewBox="0 0 425.2 425.2"><defs><style>.cls-1{fill:#fff;}</style></defs><rect class="cls-1" x="202.81" y="285.9" width="26.39" height="26.39" transform="translate(-83.09 515.1) rotate(-90)"/><path class="cls-1" d="M266.27,220.88l-6.19,9.73v6.15H222.64V274h-13V236.76H172.19V231.9L166,221.31l21.89-29.06-6.82,3.44-6.51-8.59-3.49,4.73-6-10.17,17.13-22.9h13.64l-2.38,3.3H224.7l-48.22,64.26H256l-37.44-49.66,6.66-10.45,1.43,1.86v-6.73h38.55l-21.89,28.91Zm-93.6,42.79,17.93-23.76h14.75l-26.18,34.78Zm9.84-81.86,6.66,8.87,6.35-8.44-4.92,2.43-7.14-9.45-4.92,6.59Zm21.25-10.6H186.47l-1.27,1.58h8.41l4.6,6ZM241.68,208v10.44H190.6V208Zm-14.91,31.91h15.07l18.24,24.19-6.66,11.3Zm15.7-69H228.83l6.82,9.16Z"/><polygon class="cls-1" points="372.43 274.27 241.76 285.47 241.76 312.97 372.43 285.47 372.43 274.27"/><polygon class="cls-1" points="58.07 273.59 188.74 284.79 188.74 312.29 58.07 284.79 58.07 273.59"/><polygon class="cls-1" points="102.62 159.53 187.82 148.33 187.82 120.83 102.62 148.33 102.62 159.53"/><polygon class="cls-1" points="326.17 159.53 240.97 148.33 240.97 120.83 326.17 148.33 326.17 159.53"/><polygon class="cls-1" points="226.59 137.08 205.87 147.13 205.87 127.02 226.59 116.97 226.59 137.08"/><path class="cls-1" d="M338.55,196.66l-16.36-1.52,4.15-9.66-23-3L298.47,193l-8-.74-5.34,11,8.27.46-26.51,56.73,28.8-3.52L317.93,205l5.95.33L302.66,256l23.17-2.83L344.1,206C345.7,201.89,342.91,197.06,338.55,196.66Z"/><polygon class="cls-1" points="366.84 203.08 350.49 201.92 341.14 226.91 358.8 226.38 366.84 203.08"/><polygon class="cls-1" points="409.87 195.95 394.6 194.03 371.28 219.25 381.56 235.06 363.35 236.42 363.35 238.9 382.98 237.24 384.03 238.86 368.65 240.29 368.65 242.33 385.19 240.64 385.95 241.81 354.78 245.17 354.78 249.5 390.18 245.04 390.18 245.02 402.09 243.52 388.42 221.1 409.87 195.95"/><polygon class="cls-1" points="368.65 242.33 384.64 240.7 383.68 238.89 368.65 240.29 368.65 242.33"/><polygon class="cls-1" points="381.01 233.89 380.8 233.89 381.56 235.06 363.35 236.42 363.35 238.9 382.81 237.25 381.01 233.89"/><polygon class="cls-1" points="385.27 241.88 354.78 245.17 354.78 249.5 387.16 245.42 385.27 241.88"/><path class="cls-1" d="M141.89,199.47l-49.14,4.11-3.08,8.64,39.43-2.28L116.66,255.7l21.6,1.53,11.09-49A7.27,7.27,0,0,0,141.89,199.47Z"/><polygon class="cls-1" points="64.76 213.65 78.26 212.88 80.14 207.97 83.26 199.81 44.2 203.63 40.77 210.84 66.7 208.95 64.76 213.65"/><polygon class="cls-1" points="64.83 232.53 38.94 232.39 41.12 227.59 30.11 227.73 19.95 248.87 61.37 251.8 59.94 259.74 85.57 243.09 66.44 223.57 64.83 232.53"/><path class="cls-1" d="M349,198.45c.83-2.57,1.59-5,2.37-7.37.51-1.54,1.05-3.08,1.6-4.61.13-.37,0-.51-.33-.57-1.14-.17-2.28-.34-3.42-.53a3.68,3.68,0,0,1-.62-.2c1.53-5,3.06-10.07,4.6-15.16l11,1.83c-2,3.4-3.88,6.72-5.83,10.11l5.48,1Z"/><path class="cls-1" d="M102.62,189.61c-.22-.31-.43-.63-.64-1l-1.5-2.25c0-.07-.1-.12-.14-.19-.17-.23-.33-.42-.12-.76.47-.78.86-1.59,1.28-2.39l.51-1c.18-.33.37-.65.54-1s.4-.22.63-.24.77,0,1.15-.08l1.46-.11,1.12-.09,1.78-.14,2.75-.21,1.73-.13,3.11-.24,3.58-.26c.6,0,1.2-.12,1.8-.16s.93-.06,1.39-.09l2.44-.2c.51,0,1-.05,1.53-.08s.85,0,1.26-.11c.12,0,.24-.2.31-.33.25-.47.47-1,.71-1.43l.87-1.67c.28-.52.56-1.05.82-1.58.08-.17.22-.14.35-.15.86-.07,1.72-.12,2.59-.17l2.74-.14,2.27-.13,2.56-.15a1,1,0,0,0,.17,0c.51,0,.53,0,.83.51s.53.73.8,1.09l.17.25,1.17,1.63.6.83-1.58.16-1.33.1-1.53.13-1.46.13h0a2.49,2.49,0,0,0-1.83,1.26l-.31.66c-.19.41-.36.83-.56,1.24-.26.56-.55,1.11-.82,1.67a5.15,5.15,0,0,0-.23.54s0,.09,0,.13c.39.55.78,1.09,1.18,1.63s.93,1.28,1.39,1.93a2.19,2.19,0,0,0,1.95.9h.2l2.14-.18,1.88-.16,1.62-.12-.88,1.78c-.19.37-.37.75-.55,1.13l-.93,1.93a.27.27,0,0,1-.18.08l-2.2.16-1.46.07c-.59,0-1.17.11-1.76.15s-1.18.06-1.78.1l-1.32.1-1.25.07a9.12,9.12,0,0,0-1,.09c-.2,0-.29-.05-.39-.19-.28-.43-.57-.85-.86-1.28l-.81-1.18c-.37-.53-.75-1-1.08-1.6a.59.59,0,0,0-.66-.33l-.92.08-2.45.2c-.58.05-1.17.07-1.75.11l-2.42.18-3.43.25-3.69.3-2.24.15-2.58.2c-.66,0-1.32.08-2,.12l-2.3.2-.7,0A2.1,2.1,0,0,1,102.62,189.61Z"/><path class="cls-1" d="M360.82,198.59l5.46-7.85-3.07-1.55c2.19-3.31,4.36-6.61,6.56-9.95l7.49,3.65-6.34,6,3.75,1.83-13.76,7.9Z"/></svg>