<svg xmlns="http://www.w3.org/2000/svg" version="1.1" xmlns:xlink="http://www.w3.org/1999/xlink" xmlns:svgjs="http://svgjs.com/svgjs" width="1080" height="110" preserveAspectRatio="none" viewBox="0 0 1080 110"><g mask="url(&quot;#SvgjsMask1030&quot;)" fill="none"><rect width="1080" height="110" x="0" y="0" fill="rgba(24, 40, 63, 1)"></rect><path d="M11 110L121 0L379 0L269 110z" fill="url(#SvgjsLinearGradient1031)"></path><path d="M185.20000000000002 110L295.20000000000005 0L419.70000000000005 0L309.70000000000005 110z" fill="url(#SvgjsLinearGradient1031)"></path><path d="M387.40000000000003 110L497.40000000000003 0L756.9000000000001 0L646.9000000000001 110z" fill="url(#SvgjsLinearGradient1031)"></path><path d="M545.6 110L655.6 0L757.6 0L647.6 110z" fill="url(#SvgjsLinearGradient1031)"></path><path d="M1044 110L934 0L692.5 0L802.5 110z" fill="url(#SvgjsLinearGradient1032)"></path><path d="M867.8 110L757.8 0L624.3 0L734.3 110z" fill="url(#SvgjsLinearGradient1032)"></path><path d="M698.5999999999999 110L588.5999999999999 0L503.0999999999999 0L613.0999999999999 110z" fill="url(#SvgjsLinearGradient1032)"></path><path d="M525.4 110L415.4 0L170.89999999999998 0L280.9 110z" fill="url(#SvgjsLinearGradient1032)"></path><path d="M984.0010826916657 110L1080 14.001082691665658L1080 110z" fill="url(#SvgjsLinearGradient1031)"></path><path d="M0 110L95.99891730833434 110L 0 14.001082691665658z" fill="url(#SvgjsLinearGradient1032)"></path></g><defs><mask id="SvgjsMask1030"><rect width="1080" height="110" fill="#ffffff"></rect></mask><linearGradient x1="0%" y1="100%" x2="100%" y2="0%" id="SvgjsLinearGradient1031"><stop stop-color="rgba(15, 70, 185, 0.2)" offset="0"></stop><stop stop-opacity="0" stop-color="rgba(15, 70, 185, 0.2)" offset="0.66"></stop></linearGradient><linearGradient x1="100%" y1="100%" x2="0%" y2="0%" id="SvgjsLinearGradient1032"><stop stop-color="rgba(15, 70, 185, 0.2)" offset="0"></stop><stop stop-opacity="0" stop-color="rgba(15, 70, 185, 0.2)" offset="0.66"></stop></linearGradient></defs></svg>