<?xml version="1.0" encoding="UTF-8"?>
<svg xmlns="http://www.w3.org/2000/svg" xmlns:xlink="http://www.w3.org/1999/xlink" width="37.5pt" height="37.499999pt" viewBox="0 0 37.5 37.499999" version="1.2">
<defs>
<clipPath id="clip1">
  <path d="M 7 1.296875 L 30 1.296875 L 30 16 L 7 16 Z M 7 1.296875 "/>
</clipPath>
<clipPath id="clip2">
  <path d="M 3.390625 16 L 34.140625 16 L 34.140625 32.046875 L 3.390625 32.046875 Z M 3.390625 16 "/>
</clipPath>
</defs>
<g id="surface1">
<g clip-path="url(#clip1)" clip-rule="nonzero">
<path style=" stroke:none;fill-rule:nonzero;fill:rgb(100%,100%,100%);fill-opacity:1;" d="M 19.328125 7.691406 L 19.328125 4.820312 C 19.371094 4.820312 19.417969 4.820312 19.46875 4.820312 C 19.742188 4.820312 20.082031 4.796875 20.5 4.734375 C 20.84375 4.679688 21.1875 4.582031 21.523438 4.460938 C 22.019531 4.285156 22.488281 4.066406 22.835938 3.886719 C 23.183594 3.710938 23.410156 3.578125 23.414062 3.574219 L 24.910156 2.695312 L 23.179688 2.5625 C 23.179688 2.5625 23.179688 2.5625 22 2.472656 C 21.757812 2.453125 21.433594 2.390625 21.097656 2.308594 C 20.597656 2.179688 20.0625 2.003906 19.660156 1.859375 C 19.460938 1.785156 19.289062 1.722656 19.171875 1.675781 C 19.113281 1.652344 19.066406 1.632812 19.035156 1.621094 C 19.019531 1.617188 19.007812 1.609375 19 1.609375 L 18.992188 1.605469 L 18.988281 1.605469 L 18.238281 1.296875 L 18.238281 7.691406 C 13.515625 12.6875 10.398438 13.746094 7.894531 15.320312 L 29.667969 15.320312 C 27.164062 13.746094 24.046875 12.6875 19.328125 7.691406 Z M 19.328125 7.691406 "/>
</g>
<g clip-path="url(#clip2)" clip-rule="nonzero">
<path style=" stroke:none;fill-rule:nonzero;fill:rgb(100%,100%,100%);fill-opacity:1;" d="M 30.273438 16.660156 L 7.289062 16.660156 C 6.835938 19.804688 4.859375 27.503906 3.53125 32.082031 C 7.386719 32.082031 10.066406 32.082031 10.066406 32.082031 C 10.066406 32.082031 11.992188 30.890625 12.75 23.800781 C 12.75 23.800781 16.367188 23.953125 18.78125 19.578125 C 21.195312 23.953125 24.816406 23.800781 24.816406 23.800781 C 25.570312 30.890625 27.496094 32.082031 27.496094 32.082031 C 27.496094 32.082031 30.179688 32.082031 34.035156 32.082031 C 32.707031 27.503906 30.726562 19.804688 30.273438 16.660156 Z M 30.273438 16.660156 "/>
</g>
</g>
</svg>
