<svg id="レイヤー_1" data-name="レイヤー 1" xmlns="http://www.w3.org/2000/svg" viewBox="0 0 1336 678"><defs><style>.cls-1{fill:#fefefe;}.cls-2{fill:#fe0e73;}.cls-3{fill:#fe0d73;}.cls-4{fill:#feb4d3;}.cls-5{fill:#fe3087;}.cls-6{fill:#fe398b;}.cls-7{fill:#fefbfc;}.cls-8{fill:#fef6f9;}</style></defs><path class="cls-1" d="M1335,768H-105V-42H1335ZM844.52,369.55l-.65.58v11.36h49V399h-10c.85-3.93,1.64-7.61,2.51-11.69-11.17,0-21.77,0-32.36.11-.85,0-2.17,1.36-2.44,2.33-2.1,7.31-4,14.67-5.91,22-1,3.72-1.7,7.49-2.58,11.42h35.72l4.25-21.41c2.41,8.39,4.83,15.57,6.43,22.94.75,3.43,2.15,4,5.21,4,11.12-.14,22.24-.05,33.35-.05h9.63V381.26h45.68V370.13l-.64-.58c-18.5,0-37-.1-55.49-.09Q885.38,369.46,844.52,369.55Zm60-81.11,4.58-6.86c-13.93,0-27.35,0-40.77.07a3.6,3.6,0,0,0-2.27,1.6q-12.37,17.08-24.63,34.25l.12,1.51c4.75,0,9.54.52,14.22,0,5.68-.64,8.84,1.2,11,6.6,1.39,3.48.59,5.23-2.35,7.41-1.11-2.15-2-4.14-3.15-6-.46-.77-1.31-1.83-2-1.85-5.64-.15-11.29-.08-17.57-.08,3.65,7.42,6.88,14.13,10.24,20.78a4.44,4.44,0,0,1-.51,5.44c-2.86,3.55-5.47,7.3-8.58,11.5,13.44,0,26.16-.18,38.86.11,3.76.08,6.21-.95,7.68-4.28,1.24-2.81,3.38-3.38,6.3-3.35,11.75.16,23.5.26,35.23,0,4-.1,6.65.89,8.56,4.36,1,1.82,2.19,3.3,4.89,3.27,13.36-.17,26.73-.08,40.1-.09a21.62,21.62,0,0,0,2.2-.29c-5.59-6.64-10.68-12.91-16-19-2-2.2-2.5-4.07-1.51-6.93,4.12-12,8.25-24,11.85-36.16,1.42-4.8,1.47-10,2.15-15.07H936c0,3.23.13,6.1,0,8.95-.14,2.54.95,3.28,3.32,3.16,2.84-.14,5.7,0,9.21,0l-4.9,13.73c-5.64-6.78-10.83-13.17-16.24-19.35a6.73,6.73,0,0,0-4.39-1.94c-6.12-.24-12.24-.14-18.36-.17C904.56,289.29,904.53,288.86,904.5,288.44Zm71.7,99H941.3a21.1,21.1,0,0,0,.19,3.39c2.15,9.92,4.5,19.79,6.44,29.75.45,2.32,1.24,2.83,3.31,2.82,8.87-.07,17.73,0,26.59,0h7.25C982.05,411.08,979.15,399.35,976.2,387.43Z"/><path class="cls-2" d="M841.41,317.5q12.3-17.14,24.63-34.25a3.6,3.6,0,0,1,2.27-1.6c13.42-.1,26.84-.07,40.77-.07l-4.58,6.86c0,.42.06.85.1,1.27,6.12,0,12.24-.07,18.36.17a6.73,6.73,0,0,1,4.39,1.94c5.41,6.18,10.6,12.57,16.24,19.35l4.9-13.73c-3.51,0-6.37-.11-9.21,0-2.37.12-3.46-.62-3.32-3.16.17-2.85,0-5.72,0-8.95h47.08c-.68,5.06-.73,10.27-2.15,15.07-3.6,12.16-7.73,24.17-11.85,36.16-1,2.86-.44,4.73,1.51,6.93,5.37,6,10.46,12.31,16,19a21.62,21.62,0,0,1-2.2.29c-13.37,0-26.74-.08-40.1.09-2.7,0-3.89-1.45-4.89-3.27-1.91-3.47-4.6-4.46-8.56-4.36-11.73.29-23.48.19-35.23,0-2.92,0-5.06.54-6.3,3.35-1.47,3.33-3.92,4.36-7.68,4.28-12.7-.29-25.42-.11-38.86-.11,3.11-4.2,5.72-7.95,8.58-11.5a4.44,4.44,0,0,0,.51-5.44c-3.36-6.65-6.59-13.36-10.24-20.78,6.28,0,11.93-.07,17.57.08.69,0,1.54,1.08,2,1.85,1.11,1.88,2,3.87,3.15,6,2.94-2.18,3.74-3.93,2.35-7.41-2.15-5.4-5.31-7.24-11-6.6-4.68.54-9.47.05-14.22,0Zm86.09,26-15.09-20-13.21,20Zm-38.67-42.16c-7.21-.55-10.06,1.63-13.83,9.85l4.63,2.36C882.56,309.64,885.52,305.71,888.83,301.33Z"/><path class="cls-3" d="M982.38,370.13v11.13H936.7v47.37h-9.63c-11.11,0-22.23-.09-33.35.05-3.06,0-4.46-.55-5.21-4-1.6-7.37-4-14.55-6.43-22.94l-4.25,21.41H842.11c.88-3.93,1.62-7.7,2.58-11.42,1.88-7.37,3.81-14.73,5.91-22,.27-1,1.59-2.32,2.44-2.33,10.59-.16,21.19-.11,32.36-.11-.87,4.08-1.66,7.76-2.51,11.69h10V381.49h-49V370.13l.65-.58q40.86,0,81.73-.09c18.49,0,37,.06,55.49.09Z"/><path class="cls-3" d="M976.2,387.43c2.95,11.92,5.85,23.65,8.88,35.93h-7.25c-8.86,0-17.72,0-26.59,0-2.07,0-2.86-.5-3.31-2.82-1.94-10-4.29-19.83-6.44-29.75a21.1,21.1,0,0,1-.19-3.39Z"/><path class="cls-4" d="M904.6,289.71c0-.42-.07-.85-.1-1.27C904.53,288.86,904.56,289.29,904.6,289.71Z"/><path class="cls-5" d="M841.41,317.5l.12,1.51Z"/><path class="cls-6" d="M844.52,369.55l-.65.58Z"/><path class="cls-6" d="M982.38,370.13l-.64-.58Z"/><path class="cls-7" d="M927.5,343.49H899.2l13.21-20Z"/><path class="cls-8" d="M888.83,301.33c-3.31,4.38-6.27,8.31-9.2,12.21L875,311.18C878.77,303,881.62,300.78,888.83,301.33Z"/></svg>